ISO-10303-21;
HEADER;
FILE_DESCRIPTION (( 'STEP AP214' ),
    '1' );
FILE_NAME ('Watch Buttons.STEP',
    '2025-11-08T05:16:17',
    ( '' ),
    ( '' ),
    'SwSTEP 2.0',
    'SolidWorks 2025',
    '' );
FILE_SCHEMA (( 'AUTOMOTIVE_DESIGN' ));
ENDSEC;

DATA;
#1 = ORIENTED_EDGE ( 'NONE', *, *, #246, .T. ) ;
#2 = FACE_OUTER_BOUND ( 'NONE', #575, .T. ) ;
#3 = VERTEX_POINT ( 'NONE', #574 ) ;
#4 = DIRECTION ( 'NONE',  ( -0.000000000000000000, 0.000000000000000000, 1.000000000000000000 ) ) ;
#5 = LINE ( 'NONE', #406, #359 ) ;
#6 = ADVANCED_FACE ( 'NONE', ( #619 ), #87, .F. ) ;
#7 = ORIENTED_EDGE ( 'NONE', *, *, #643, .T. ) ;
#8 = FACE_OUTER_BOUND ( 'NONE', #257, .T. ) ;
#9 = CARTESIAN_POINT ( 'NONE',  ( -1.216939074921508324, 0.5919390749215093228, 0.1480280138171312931 ) ) ;
#10 = ORIENTED_EDGE ( 'NONE', *, *, #164, .F. ) ;
#11 = VECTOR ( 'NONE', #301, 1000.000000000000114 ) ;
#12 = CARTESIAN_POINT ( 'NONE',  ( 1.250000000000000666, 0.8750000000000011102, 0.8500000000000000888 ) ) ;
#13 = VERTEX_POINT ( 'NONE', #511 ) ;
#14 = EDGE_CURVE ( 'NONE', #13, #268, #356, .T. ) ;
#15 = CARTESIAN_POINT ( 'NONE',  ( -2.000000000000000000, 0.000000000000000000, 5.500000000000000000 ) ) ;
#16 = DIRECTION ( 'NONE',  ( 0.7071067811865463515, 0.000000000000000000, 0.7071067811865487940 ) ) ;
#17 = ORIENTED_EDGE ( 'NONE', *, *, #402, .T. ) ;
#18 = CARTESIAN_POINT ( 'NONE',  ( 1.062500000000003109, 1.062499999999999112, 5.000000000000000000 ) ) ;
#19 = ADVANCED_FACE ( 'NONE', ( #38 ), #29, .F. ) ;
#20 = EDGE_LOOP ( 'NONE', ( #652, #231, #448, #134 ) ) ;
#21 = VECTOR ( 'NONE', #22, 1000.000000000000114 ) ;
#22 = DIRECTION ( 'NONE',  ( -0.5773502691896263972, 0.5773502691896263972, -0.5773502691896245098 ) ) ;
#23 = DIRECTION ( 'NONE',  ( -0.000000000000000000, -0.000000000000000000, -1.000000000000000000 ) ) ;
#24 = CARTESIAN_POINT ( 'NONE',  ( -1.375000000000000000, 0.7500000000000006661, 0.4062940162675286460 ) ) ;
#25 = DIRECTION ( 'NONE',  ( -0.7071067811865463515, 0.7071067811865487940, 0.000000000000000000 ) ) ;
#26 = EDGE_CURVE ( 'NONE', #111, #35, #467, .T. ) ;
#27 = EDGE_LOOP ( 'NONE', ( #421, #457, #272, #46, #499, #590 ) ) ;
#28 = DIRECTION ( 'NONE',  ( 0.000000000000000000, -1.000000000000000000, 0.000000000000000000 ) ) ;
#29 = PLANE ( 'NONE',  #224 ) ;
#30 = ORIENTED_EDGE ( 'NONE', *, *, #237, .T. ) ;
#31 = CARTESIAN_POINT ( 'NONE',  ( -1.500000000000000000, -0.8750000000000011102, 0.8500000000000000888 ) ) ;
#32 = VECTOR ( 'NONE', #538, 1000.000000000000000 ) ;
#33 = LINE ( 'NONE', #671, #572 ) ;
#34 = CARTESIAN_POINT ( 'NONE',  ( 0.000000000000000000, -0.02500000000000114977, 0.000000000000000000 ) ) ;
#35 = VERTEX_POINT ( 'NONE', #194 ) ;
#36 = CARTESIAN_POINT ( 'NONE',  ( 1.249999999999998668, -0.8750000000000011102, 0.6924045509085855477 ) ) ;
#37 = ADVANCED_FACE ( 'NONE', ( #128 ), #82, .F. ) ;
#38 = FACE_OUTER_BOUND ( 'NONE', #407, .T. ) ;
#39 = CARTESIAN_POINT ( 'NONE',  ( -1.062500000000003109, -1.062499999999999112, 5.000000000000000000 ) ) ;
#40 = ORIENTED_EDGE ( 'NONE', *, *, #333, .T. ) ;
#41 = CARTESIAN_POINT ( 'NONE',  ( -1.375000000000000000, 0.7500000000000006661, 0.4062940162675286460 ) ) ;
#42 = AXIS2_PLACEMENT_3D ( 'NONE', #288, #16, #234 ) ;
#43 = CARTESIAN_POINT ( 'NONE',  ( -1.250000000000000666, -0.8750000000000011102, 0.8500000000000000888 ) ) ;
#44 = CARTESIAN_POINT ( 'NONE',  ( -1.250000000000000666, -0.8750000000000011102, 5.000000000000000000 ) ) ;
#45 = ADVANCED_FACE ( 'NONE', ( #685 ), #453, .F. ) ;
#46 = ORIENTED_EDGE ( 'NONE', *, *, #323, .F. ) ;
#47 = LINE ( 'NONE', #478, #295 ) ;
#48 = CARTESIAN_POINT ( 'NONE',  ( -1.500000000000000000, 0.8750000000000011102, 0.8500000000000000888 ) ) ;
#49 = ORIENTED_EDGE ( 'NONE', *, *, #676, .F. ) ;
#50 = DIRECTION ( 'NONE',  ( -0.7071067811865463515, 0.000000000000000000, 0.7071067811865487940 ) ) ;
#51 = PLANE ( 'NONE',  #460 ) ;
#52 = VERTEX_POINT ( 'NONE', #562 ) ;
#53 = CARTESIAN_POINT ( 'NONE',  ( 0.9527946235625353033, 0.3277946235625367466, 3.739537409807737136E-16 ) ) ;
#54 = VECTOR ( 'NONE', #389, 1000.000000000000000 ) ;
#55 = CARTESIAN_POINT ( 'NONE',  ( 1.500000000000000000, 0.6250000000000008882, 5.000000000000000000 ) ) ;
#56 = ORIENTED_EDGE ( 'NONE', *, *, #648, .F. ) ;
#57 = EDGE_CURVE ( 'NONE', #335, #3, #461, .T. ) ;
#58 =( BOUNDED_CURVE ( )  B_SPLINE_CURVE ( 3, ( #369, #632, #94, #43 ),
 .UNSPECIFIED., .F., .T. ) 
 B_SPLINE_CURVE_WITH_KNOTS ( ( 4, 4 ),
 ( 5.733982965215067118, 6.283185307179586232 ),
 .UNSPECIFIED. ) 
 CURVE ( )  GEOMETRIC_REPRESENTATION_ITEM ( )  RATIONAL_B_SPLINE_CURVE ( ( 1.000000000000000000, 0.9750222812530813243, 0.9750222812530813243, 1.000000000000000000 ) ) 
 REPRESENTATION_ITEM ( '' )  );
#59 = CARTESIAN_POINT ( 'NONE',  ( 0.000000000000000000, 0.02500000000000114977, 0.000000000000000000 ) ) ;
#60 = VERTEX_POINT ( 'NONE', #80 ) ;
#61 = PLANE ( 'NONE',  #166 ) ;
#62 = CARTESIAN_POINT ( 'NONE',  ( 1.749999999999998890, -1.125000000000000222, 5.000000000000000000 ) ) ;
#63 = ORIENTED_EDGE ( 'NONE', *, *, #126, .F. ) ;
#64 = CARTESIAN_POINT ( 'NONE',  ( 2.000000000000000000, 1.375000000000001332, 5.500000000000000000 ) ) ;
#65 = VERTEX_POINT ( 'NONE', #78 ) ;
#66 = VECTOR ( 'NONE', #320, 1000.000000000000000 ) ;
#67 = ADVANCED_FACE ( 'NONE', ( #516 ), #298, .F. ) ;
#68 = DIRECTION ( 'NONE',  ( 0.000000000000000000, 0.000000000000000000, -1.000000000000000000 ) ) ;
#69 = ORIENTED_EDGE ( 'NONE', *, *, #26, .F. ) ;
#70 = FACE_OUTER_BOUND ( 'NONE', #20, .T. ) ;
#71 = ORIENTED_EDGE ( 'NONE', *, *, #664, .F. ) ;
#72 = CARTESIAN_POINT ( 'NONE',  ( 0.000000000000000000, -1.375000000000001332, 5.500000000000000000 ) ) ;
#73 = CARTESIAN_POINT ( 'NONE',  ( 0.000000000000000000, 1.375000000000001332, 5.250000000000000000 ) ) ;
#74 = VECTOR ( 'NONE', #366, 1000.000000000000000 ) ;
#75 =( GEOMETRIC_REPRESENTATION_CONTEXT ( 3 ) GLOBAL_UNCERTAINTY_ASSIGNED_CONTEXT ( ( #581 ) ) GLOBAL_UNIT_ASSIGNED_CONTEXT ( ( #554, #161, #639 ) ) REPRESENTATION_CONTEXT ( 'NONE', 'WORKASPACE' ) );
#76 = ADVANCED_FACE ( 'NONE', ( #199 ), #244, .F. ) ;
#77 = FACE_OUTER_BOUND ( 'NONE', #625, .T. ) ;
#78 = CARTESIAN_POINT ( 'NONE',  ( -1.500000000000000000, -0.6250000000000008882, 5.000000000000000000 ) ) ;
#79 = CARTESIAN_POINT ( 'NONE',  ( -1.500000000000000000, 0.8750000000000011102, 5.000000000000000000 ) ) ;
#80 = CARTESIAN_POINT ( 'NONE',  ( -1.375000000000000000, 0.7500000000000006661, 0.4062940162675286460 ) ) ;
#81 = CARTESIAN_POINT ( 'NONE',  ( -1.249999999999999112, 0.8750000000000011102, 0.6924045509085857697 ) ) ;
#82 = PLANE ( 'NONE',  #539 ) ;
#83 = CARTESIAN_POINT ( 'NONE',  ( -1.250000000000000666, -0.8750000000000011102, 5.000000000000000000 ) ) ;
#84 = EDGE_CURVE ( 'NONE', #393, #606, #144, .T. ) ;
#85 = VECTOR ( 'NONE', #419, 1000.000000000000000 ) ;
#86 = CARTESIAN_POINT ( 'NONE',  ( -1.500000000000000000, -0.6250000000000008882, 0.8500000000000000888 ) ) ;
#87 = PLANE ( 'NONE',  #302 ) ;
#88 = EDGE_LOOP ( 'NONE', ( #100, #254, #307, #396 ) ) ;
#89 = LINE ( 'NONE', #31, #416 ) ;
#90 = EDGE_CURVE ( 'NONE', #210, #606, #187, .T. ) ;
#91 = EDGE_CURVE ( 'NONE', #695, #283, #296, .T. ) ;
#92 = DIRECTION ( 'NONE',  ( -0.000000000000000000, -0.000000000000000000, -1.000000000000000000 ) ) ;
#93 = CARTESIAN_POINT ( 'NONE',  ( -2.000000000000000000, -1.375000000000001332, 5.250000000000000000 ) ) ;
#94 = CARTESIAN_POINT ( 'NONE',  ( -1.250000000000000888, -0.8750000000000011102, 0.6924045509085858807 ) ) ;
#95 = LINE ( 'NONE', #48, #177 ) ;
#96 = VERTEX_POINT ( 'NONE', #312 ) ;
#97 = VECTOR ( 'NONE', #92, 1000.000000000000000 ) ;
#98 = ADVANCED_FACE ( 'NONE', ( #472 ), #423, .T. ) ;
#99 = FACE_OUTER_BOUND ( 'NONE', #553, .T. ) ;
#100 = ORIENTED_EDGE ( 'NONE', *, *, #215, .T. ) ;
#101 = CARTESIAN_POINT ( 'NONE',  ( -0.6500000000000001332, 0.8750000000000011102, 0.8500000000000000888 ) ) ;
#102 = DIRECTION ( 'NONE',  ( -0.000000000000000000, 0.000000000000000000, 1.000000000000000000 ) ) ;
#103 = ORIENTED_EDGE ( 'NONE', *, *, #602, .F. ) ;
#104 = DIRECTION ( 'NONE',  ( 0.7071067811865462405, -0.7071067811865489050, 0.000000000000000000 ) ) ;
#105 = ORIENTED_EDGE ( 'NONE', *, *, #90, .T. ) ;
#106 = ADVANCED_FACE ( 'NONE', ( #534, #218 ), #51, .F. ) ;
#107 = CARTESIAN_POINT ( 'NONE',  ( -2.000000000000000000, -1.375000000000001332, 5.500000000000000000 ) ) ;
#108 = VECTOR ( 'NONE', #675, 1000.000000000000000 ) ;
#109 = AXIS2_PLACEMENT_3D ( 'NONE', #158, #651, #580 ) ;
#110 = DIRECTION ( 'NONE',  ( -0.7071067811865462405, 0.7071067811865489050, -0.000000000000000000 ) ) ;
#111 = VERTEX_POINT ( 'NONE', #371 ) ;
#112 = CARTESIAN_POINT ( 'NONE',  ( 0.000000000000000000, -1.375000000000001332, 5.250000000000000000 ) ) ;
#113 = CARTESIAN_POINT ( 'NONE',  ( 1.250000000000000666, 0.8750000000000011102, 5.000000000000000000 ) ) ;
#114 = ORIENTED_EDGE ( 'NONE', *, *, #684, .F. ) ;
#115 = EDGE_CURVE ( 'NONE', #235, #52, #689, .T. ) ;
#116 = LINE ( 'NONE', #230, #481 ) ;
#117 = VERTEX_POINT ( 'NONE', #212 ) ;
#118 = SURFACE_STYLE_FILL_AREA ( #545 ) ;
#119 = DIRECTION ( 'NONE',  ( 1.000000000000000000, 0.000000000000000000, 0.000000000000000000 ) ) ;
#120 = VECTOR ( 'NONE', #104, 999.9999999999998863 ) ;
#121 = EDGE_LOOP ( 'NONE', ( #691, #105, #326, #168 ) ) ;
#122 = PLANE ( 'NONE',  #42 ) ;
#123 = ORIENTED_EDGE ( 'NONE', *, *, #57, .T. ) ;
#124 = PLANE ( 'NONE',  #328 ) ;
#125 = VERTEX_POINT ( 'NONE', #701 ) ;
#126 = EDGE_CURVE ( 'NONE', #436, #13, #430, .T. ) ;
#127 = CARTESIAN_POINT ( 'NONE',  ( 1.457265933848078232, -0.6677340661519222120, 0.5407136640219697421 ) ) ;
#128 = FACE_OUTER_BOUND ( 'NONE', #471, .T. ) ;
#129 = VECTOR ( 'NONE', #151, 1000.000000000000000 ) ;
#130 = DIRECTION ( 'NONE',  ( 1.000000000000000000, 0.000000000000000000, 0.000000000000000000 ) ) ;
#131 = DIRECTION ( 'NONE',  ( -1.000000000000000000, 0.000000000000000000, 0.000000000000000000 ) ) ;
#132 = CARTESIAN_POINT ( 'NONE',  ( 1.499999999999999778, -0.6250000000000004441, 0.6924045509085852146 ) ) ;
#133 = EDGE_CURVE ( 'NONE', #623, #698, #432, .T. ) ;
#134 = ORIENTED_EDGE ( 'NONE', *, *, #215, .F. ) ;
#135 = ORIENTED_EDGE ( 'NONE', *, *, #610, .F. ) ;
#136 = DIRECTION ( 'NONE',  ( 0.000000000000000000, 0.000000000000000000, 1.000000000000000000 ) ) ;
#137 = CARTESIAN_POINT ( 'NONE',  ( 0.6500000000000001332, 0.02500000000000114977, 0.000000000000000000 ) ) ;
#138 = ORIENTED_EDGE ( 'NONE', *, *, #493, .T. ) ;
#139 = ORIENTED_EDGE ( 'NONE', *, *, #402, .F. ) ;
#140 = APPLICATION_PROTOCOL_DEFINITION ( 'draft international standard', 'automotive_design', 1998, #624 ) ;
#141 = VECTOR ( 'NONE', #130, 1000.000000000000000 ) ;
#142 =( GEOMETRIC_REPRESENTATION_CONTEXT ( 3 ) GLOBAL_UNCERTAINTY_ASSIGNED_CONTEXT ( ( #523 ) ) GLOBAL_UNIT_ASSIGNED_CONTEXT ( ( #686, #250, #576 ) ) REPRESENTATION_CONTEXT ( 'NONE', 'WORKASPACE' ) );
#143 = DIRECTION ( 'NONE',  ( 0.000000000000000000, 0.000000000000000000, -1.000000000000000000 ) ) ;
#144 = LINE ( 'NONE', #559, #108 ) ;
#145 = EDGE_LOOP ( 'NONE', ( #501, #556, #646, #547, #682 ) ) ;
#146 = CARTESIAN_POINT ( 'NONE',  ( -0.6500000000000001332, 0.000000000000000000, 0.000000000000000000 ) ) ;
#147 = CARTESIAN_POINT ( 'NONE',  ( -1.500000000000000000, -0.02500000000000114977, 0.8500000000000000888 ) ) ;
#148 = VERTEX_POINT ( 'NONE', #314 ) ;
#149 = EDGE_CURVE ( 'NONE', #65, #663, #588, .T. ) ;
#150 =( BOUNDED_CURVE ( )  B_SPLINE_CURVE ( 3, ( #354, #36, #179, #361 ),
 .UNSPECIFIED., .F., .T. ) 
 B_SPLINE_CURVE_WITH_KNOTS ( ( 4, 4 ),
 ( 3.141592653589793116, 3.690794995554313562 ),
 .UNSPECIFIED. ) 
 CURVE ( )  GEOMETRIC_REPRESENTATION_ITEM ( )  RATIONAL_B_SPLINE_CURVE ( ( 1.000000000000000000, 0.9750222812530811023, 0.9750222812530811023, 1.000000000000000000 ) ) 
 REPRESENTATION_ITEM ( '' )  );
#151 = DIRECTION ( 'NONE',  ( -0.000000000000000000, 1.000000000000000000, -0.000000000000000000 ) ) ;
#152 = ORIENTED_EDGE ( 'NONE', *, *, #323, .T. ) ;
#153 = VECTOR ( 'NONE', #388, 1000.000000000000000 ) ;
#154 = DIRECTION ( 'NONE',  ( -0.7071067811865487940, -0.7071067811865463515, -0.000000000000000000 ) ) ;
#155 = DIRECTION ( 'NONE',  ( 0.000000000000000000, -0.000000000000000000, -1.000000000000000000 ) ) ;
#156 = VERTEX_POINT ( 'NONE', #375 ) ;
#157 = CARTESIAN_POINT ( 'NONE',  ( 0.6500000000000001332, 0.02500000000000114977, 0.000000000000000000 ) ) ;
#158 = CARTESIAN_POINT ( 'NONE',  ( -2.000000000000000000, 0.000000000000000000, 5.500000000000000000 ) ) ;
#159 = ADVANCED_FACE ( 'NONE', ( #209 ), #641, .F. ) ;
#160 = ORIENTED_EDGE ( 'NONE', *, *, #676, .T. ) ;
#161 =( NAMED_UNIT ( * ) PLANE_ANGLE_UNIT ( ) SI_UNIT ( $, .RADIAN. ) );
#162 = EDGE_LOOP ( 'NONE', ( #512, #178, #222, #390 ) ) ;
#163 = EDGE_CURVE ( 'NONE', #3, #543, #531, .T. ) ;
#164 = EDGE_CURVE ( 'NONE', #387, #543, #426, .T. ) ;
#165 = CARTESIAN_POINT ( 'NONE',  ( -1.375000000000000222, -0.7500000000000013323, 0.4062940162675291456 ) ) ;
#166 = AXIS2_PLACEMENT_3D ( 'NONE', #599, #4, #223 ) ;
#167 = CARTESIAN_POINT ( 'NONE',  ( -0.9527946235625354143, 0.3277946235625365246, 3.739537409807737136E-16 ) ) ;
#168 = ORIENTED_EDGE ( 'NONE', *, *, #474, .F. ) ;
#169 = EDGE_CURVE ( 'NONE', #117, #96, #95, .T. ) ;
#170 = CARTESIAN_POINT ( 'NONE',  ( 1.292734066151922212, 0.8322659338480793423, 0.5407136640219702972 ) ) ;
#171 = ORIENTED_EDGE ( 'NONE', *, *, #579, .F. ) ;
#172 = LINE ( 'NONE', #15, #153 ) ;
#173 = DIRECTION ( 'NONE',  ( -1.000000000000000000, 0.000000000000000000, 0.000000000000000000 ) ) ;
#174 = ORIENTED_EDGE ( 'NONE', *, *, #169, .F. ) ;
#175 = SURFACE_STYLE_USAGE ( .BOTH. , #445 ) ;
#176 = CARTESIAN_POINT ( 'NONE',  ( -0.000000000000000000, 1.125000000000000222, 5.000000000000000000 ) ) ;
#177 = VECTOR ( 'NONE', #697, 1000.000000000000000 ) ;
#178 = ORIENTED_EDGE ( 'NONE', *, *, #441, .F. ) ;
#179 = CARTESIAN_POINT ( 'NONE',  ( 1.292734066151920658, -0.8322659338480794533, 0.5407136640219704082 ) ) ;
#180 = CARTESIAN_POINT ( 'NONE',  ( 1.500000000000000000, 0.6250000000000008882, 0.6924045509085858807 ) ) ;
#181 = ORIENTED_EDGE ( 'NONE', *, *, #282, .T. ) ;
#182 = ADVANCED_FACE ( 'NONE', ( #99 ), #205, .T. ) ;
#183 = CARTESIAN_POINT ( 'NONE',  ( -1.500000000000000000, -0.6250000000000006661, 0.6924045509085858807 ) ) ;
#184 = ORIENTED_EDGE ( 'NONE', *, *, #526, .T. ) ;
#185 = ORIENTED_EDGE ( 'NONE', *, *, #84, .T. ) ;
#186 = FACE_OUTER_BOUND ( 'NONE', #399, .T. ) ;
#187 = LINE ( 'NONE', #73, #550 ) ;
#188 = ADVANCED_BREP_SHAPE_REPRESENTATION ( 'Watch Buttons', ( #653, #551 ), #142 ) ;
#189 = AXIS2_PLACEMENT_3D ( 'NONE', #147, #593, #367 ) ;
#190 = ORIENTED_EDGE ( 'NONE', *, *, #163, .T. ) ;
#191 = VECTOR ( 'NONE', #629, 1000.000000000000000 ) ;
#192 = EDGE_CURVE ( 'NONE', #663, #368, #379, .T. ) ;
#193 = CARTESIAN_POINT ( 'NONE',  ( -2.000000000000000000, 1.375000000000001332, 5.500000000000000000 ) ) ;
#194 = CARTESIAN_POINT ( 'NONE',  ( 2.000000000000000000, -1.375000000000001332, 5.250000000000000000 ) ) ;
#195 = CARTESIAN_POINT ( 'NONE',  ( -1.457265933848078232, 0.6677340661519226561, 0.5407136640219702972 ) ) ;
#196 = ADVANCED_FACE ( 'NONE', ( #317 ), #267, .F. ) ;
#197 = CARTESIAN_POINT ( 'NONE',  ( 1.500000000000000000, 0.6250000000000008882, 0.8500000000000000888 ) ) ;
#198 = EDGE_CURVE ( 'NONE', #519, #13, #544, .T. ) ;
#199 = FACE_OUTER_BOUND ( 'NONE', #382, .T. ) ;
#200 = ORIENTED_EDGE ( 'NONE', *, *, #643, .F. ) ;
#201 = CARTESIAN_POINT ( 'NONE',  ( 1.500000000000000000, -0.6250000000000008882, 5.000000000000000000 ) ) ;
#202 = DIRECTION ( 'NONE',  ( 0.7071067811865487940, 0.7071067811865463515, -0.000000000000000000 ) ) ;
#203 = VECTOR ( 'NONE', #256, 1000.000000000000000 ) ;
#204 = DIRECTION ( 'NONE',  ( 0.000000000000000000, 1.000000000000000000, 0.000000000000000000 ) ) ;
#205 = CYLINDRICAL_SURFACE ( 'NONE', #394, 0.8500000000000000888 ) ;
#206 = ORIENTED_EDGE ( 'NONE', *, *, #362, .F. ) ;
#207 = ADVANCED_FACE ( 'NONE', ( #2 ), #637, .F. ) ;
#208 = CARTESIAN_POINT ( 'NONE',  ( 2.000000000000000000, 0.000000000000000000, 5.500000000000000000 ) ) ;
#209 = FACE_OUTER_BOUND ( 'NONE', #427, .T. ) ;
#210 = VERTEX_POINT ( 'NONE', #662 ) ;
#211 = LINE ( 'NONE', #266, #284 ) ;
#212 = CARTESIAN_POINT ( 'NONE',  ( -1.500000000000000000, 0.6250000000000008882, 0.8500000000000000888 ) ) ;
#213 = ORIENTED_EDGE ( 'NONE', *, *, #228, .T. ) ;
#214 = CARTESIAN_POINT ( 'NONE',  ( 2.000000000000000000, 0.000000000000000000, 5.500000000000000000 ) ) ;
#215 = EDGE_CURVE ( 'NONE', #125, #695, #339, .T. ) ;
#216 = CARTESIAN_POINT ( 'NONE',  ( 1.500000000000000000, 0.8750000000000011102, 5.000000000000000000 ) ) ;
#217 = VERTEX_POINT ( 'NONE', #491 ) ;
#218 = FACE_BOUND ( 'NONE', #680, .T. ) ;
#219 = ADVANCED_FACE ( 'NONE', ( #386 ), #238, .T. ) ;
#220 = ORIENTED_EDGE ( 'NONE', *, *, #570, .T. ) ;
#221 = CARTESIAN_POINT ( 'NONE',  ( 1.250000000000000444, 0.8750000000000011102, 0.6924045509085855477 ) ) ;
#222 = ORIENTED_EDGE ( 'NONE', *, *, #290, .F. ) ;
#223 = DIRECTION ( 'NONE',  ( 1.000000000000000000, 0.000000000000000000, 0.000000000000000000 ) ) ;
#224 = AXIS2_PLACEMENT_3D ( 'NONE', #566, #131, #349 ) ;
#225 = AXIS2_PLACEMENT_3D ( 'NONE', #438, #229, #278 ) ;
#226 = CARTESIAN_POINT ( 'NONE',  ( -0.6500000000000001332, -0.02500000000000114977, 0.000000000000000000 ) ) ;
#227 = ORIENTED_EDGE ( 'NONE', *, *, #657, .T. ) ;
#228 = EDGE_CURVE ( 'NONE', #663, #335, #285, .T. ) ;
#229 = DIRECTION ( 'NONE',  ( -0.000000000000000000, 0.000000000000000000, 1.000000000000000000 ) ) ;
#230 = CARTESIAN_POINT ( 'NONE',  ( -2.000000000000000000, 0.000000000000000000, 5.250000000000000000 ) ) ;
#231 = ORIENTED_EDGE ( 'NONE', *, *, #90, .F. ) ;
#232 =( BOUNDED_CURVE ( )  B_SPLINE_CURVE ( 3, ( #157, #53, #378, #592 ),
 .UNSPECIFIED., .F., .F. ) 
 B_SPLINE_CURVE_WITH_KNOTS ( ( 4, 4 ),
 ( 1.570796326794896780, 2.592390311625274002 ),
 .UNSPECIFIED. ) 
 CURVE ( )  GEOMETRIC_REPRESENTATION_ITEM ( )  RATIONAL_B_SPLINE_CURVE ( ( 1.000000000000000000, 0.9149034379610766488, 0.9149034379610766488, 1.000000000000000000 ) ) 
 REPRESENTATION_ITEM ( '' )  );
#233 = FILL_AREA_STYLE_COLOUR ( '', #560 ) ;
#234 = DIRECTION ( 'NONE',  ( 0.000000000000000000, -1.000000000000000000, 0.000000000000000000 ) ) ;
#235 = VERTEX_POINT ( 'NONE', #600 ) ;
#236 = AXIS2_PLACEMENT_3D ( 'NONE', #358, #672, #627 ) ;
#237 = EDGE_CURVE ( 'NONE', #235, #620, #498, .T. ) ;
#238 = CYLINDRICAL_SURFACE ( 'NONE', #700, 0.8500000000000000888 ) ;
#239 = AXIS2_PLACEMENT_3D ( 'NONE', #79, #28, #678 ) ;
#240 = ORIENTED_EDGE ( 'NONE', *, *, #149, .F. ) ;
#241 = CARTESIAN_POINT ( 'NONE',  ( -0.6500000000000001332, 0.02500000000000114977, 0.000000000000000000 ) ) ;
#242 = DIRECTION ( 'NONE',  ( 0.000000000000000000, 0.000000000000000000, -1.000000000000000000 ) ) ;
#243 = LINE ( 'NONE', #455, #21 ) ;
#244 = PLANE ( 'NONE',  #413 ) ;
#245 = ORIENTED_EDGE ( 'NONE', *, *, #91, .F. ) ;
#246 = EDGE_CURVE ( 'NONE', #156, #620, #489, .T. ) ;
#247 = LINE ( 'NONE', #355, #141 ) ;
#248 = CARTESIAN_POINT ( 'NONE',  ( 2.000000000000000000, -1.375000000000001332, 5.500000000000000000 ) ) ;
#249 = EDGE_LOOP ( 'NONE', ( #289, #245, #638, #405 ) ) ;
#250 =( NAMED_UNIT ( * ) PLANE_ANGLE_UNIT ( ) SI_UNIT ( $, .RADIAN. ) );
#251 = EDGE_CURVE ( 'NONE', #464, #60, #376, .T. ) ;
#252 = FACE_OUTER_BOUND ( 'NONE', #670, .T. ) ;
#253 = DIRECTION ( 'NONE',  ( 0.000000000000000000, 1.000000000000000000, 0.000000000000000000 ) ) ;
#254 = ORIENTED_EDGE ( 'NONE', *, *, #91, .T. ) ;
#255 =( BOUNDED_CURVE ( )  B_SPLINE_CURVE ( 3, ( #197, #180, #408, #626 ),
 .UNSPECIFIED., .F., .F. ) 
 B_SPLINE_CURVE_WITH_KNOTS ( ( 4, 4 ),
 ( 3.141592653589793116, 3.690794995554312674 ),
 .UNSPECIFIED. ) 
 CURVE ( )  GEOMETRIC_REPRESENTATION_ITEM ( )  RATIONAL_B_SPLINE_CURVE ( ( 1.000000000000000000, 0.9750222812530813243, 0.9750222812530813243, 1.000000000000000000 ) ) 
 REPRESENTATION_ITEM ( '' )  );
#256 = DIRECTION ( 'NONE',  ( 0.000000000000000000, 0.000000000000000000, 1.000000000000000000 ) ) ;
#257 = EDGE_LOOP ( 'NONE', ( #152, #319, #496, #586 ) ) ;
#258 = CARTESIAN_POINT ( 'NONE',  ( 1.249999999999998890, -0.8750000000000011102, 0.8500000000000000888 ) ) ;
#259 = ADVANCED_FACE ( 'NONE', ( #450 ), #608, .F. ) ;
#260 = CARTESIAN_POINT ( 'NONE',  ( 0.9527946235625350813, -0.3277946235625363025, 3.438014750728956446E-16 ) ) ;
#261 = ORIENTED_EDGE ( 'NONE', *, *, #318, .T. ) ;
#262 = CARTESIAN_POINT ( 'NONE',  ( -1.500000000000000000, 0.6250000000000009992, 0.6924045509085855477 ) ) ;
#263 = PRESENTATION_LAYER_ASSIGNMENT (  '', '', ( #458 ) ) ;
#264 = DIRECTION ( 'NONE',  ( 0.000000000000000000, -1.000000000000000000, 0.000000000000000000 ) ) ;
#265 = ORIENTED_EDGE ( 'NONE', *, *, #474, .T. ) ;
#266 = CARTESIAN_POINT ( 'NONE',  ( -0.000000000000000000, -1.125000000000000222, 5.000000000000000000 ) ) ;
#267 = PLANE ( 'NONE',  #607 ) ;
#268 = VERTEX_POINT ( 'NONE', #226 ) ;
#269 = ADVANCED_FACE ( 'NONE', ( #330 ), #122, .F. ) ;
#270 = DIRECTION ( 'NONE',  ( 0.000000000000000000, 1.000000000000000000, 0.000000000000000000 ) ) ;
#271 = CARTESIAN_POINT ( 'NONE',  ( 0.000000000000000000, 0.000000000000000000, 5.000000000000000000 ) ) ;
#272 = ORIENTED_EDGE ( 'NONE', *, *, #565, .F. ) ;
#273 = VECTOR ( 'NONE', #615, 1000.000000000000000 ) ;
#274 = VECTOR ( 'NONE', #555, 1000.000000000000114 ) ;
#275 = APPLICATION_CONTEXT ( 'automotive_design' ) ;
#276 = CARTESIAN_POINT ( 'NONE',  ( 0.6500000000000001332, 0.8750000000000011102, 0.8500000000000000888 ) ) ;
#277 = ORIENTED_EDGE ( 'NONE', *, *, #290, .T. ) ;
#278 = DIRECTION ( 'NONE',  ( 1.000000000000000000, 0.000000000000000000, 0.000000000000000000 ) ) ;
#279 = PLANE ( 'NONE',  #415 ) ;
#280 = ORIENTED_EDGE ( 'NONE', *, *, #133, .T. ) ;
#281 = CARTESIAN_POINT ( 'NONE',  ( -1.541666666666665186, -0.9166666666666664076, 4.791666666666666963 ) ) ;
#282 = EDGE_CURVE ( 'NONE', #606, #698, #116, .T. ) ;
#283 = VERTEX_POINT ( 'NONE', #62 ) ;
#284 = VECTOR ( 'NONE', #696, 1000.000000000000000 ) ;
#285 = LINE ( 'NONE', #447, #348 ) ;
#286 = ORIENTED_EDGE ( 'NONE', *, *, #169, .T. ) ;
#287 = FACE_OUTER_BOUND ( 'NONE', #411, .T. ) ;
#288 = CARTESIAN_POINT ( 'NONE',  ( -2.000000000000000000, 0.000000000000000000, 5.250000000000000000 ) ) ;
#289 = ORIENTED_EDGE ( 'NONE', *, *, #462, .T. ) ;
#290 = EDGE_CURVE ( 'NONE', #698, #660, #343, .T. ) ;
#291 = CARTESIAN_POINT ( 'NONE',  ( 0.000000000000000000, 1.375000000000001332, 5.250000000000000000 ) ) ;
#292 = EDGE_LOOP ( 'NONE', ( #377, #609, #338, #71, #49, #628 ) ) ;
#293 = ADVANCED_FACE ( 'NONE', ( #70 ), #279, .F. ) ;
#294 = DIRECTION ( 'NONE',  ( 0.000000000000000000, 1.000000000000000000, 0.000000000000000000 ) ) ;
#295 = VECTOR ( 'NONE', #154, 1000.000000000000000 ) ;
#296 = LINE ( 'NONE', #505, #494 ) ;
#297 = LINE ( 'NONE', #352, #203 ) ;
#298 = PLANE ( 'NONE',  #327 ) ;
#299 = CARTESIAN_POINT ( 'NONE',  ( 2.000000000000000000, 0.000000000000000000, 5.250000000000000000 ) ) ;
#300 = DIRECTION ( 'NONE',  ( -1.000000000000000000, 0.000000000000000000, 0.000000000000000000 ) ) ;
#301 = DIRECTION ( 'NONE',  ( 0.5773502691896263972, 0.5773502691896263972, 0.5773502691896245098 ) ) ;
#302 = AXIS2_PLACEMENT_3D ( 'NONE', #306, #253, #681 ) ;
#303 = DIRECTION ( 'NONE',  ( 0.000000000000000000, 0.000000000000000000, -1.000000000000000000 ) ) ;
#304 = AXIS2_PLACEMENT_3D ( 'NONE', #113, #552, #68 ) ;
#305 = DIRECTION ( 'NONE',  ( 0.000000000000000000, 1.000000000000000000, 0.000000000000000000 ) ) ;
#306 = CARTESIAN_POINT ( 'NONE',  ( -1.500000000000000000, -0.8750000000000011102, 5.000000000000000000 ) ) ;
#307 = ORIENTED_EDGE ( 'NONE', *, *, #513, .T. ) ;
#308 = DIRECTION ( 'NONE',  ( 1.000000000000000000, 0.000000000000000000, 0.000000000000000000 ) ) ;
#309 = EDGE_CURVE ( 'NONE', #484, #335, #659, .T. ) ;
#310 = PRODUCT_DEFINITION_SHAPE ( 'NONE', 'NONE',  #446 ) ;
#311 = CARTESIAN_POINT ( 'NONE',  ( 1.500000000000000000, 0.8750000000000011102, 0.8500000000000000888 ) ) ;
#312 = CARTESIAN_POINT ( 'NONE',  ( -1.500000000000000000, -0.6250000000000008882, 0.8500000000000000888 ) ) ;
#313 = ORIENTED_EDGE ( 'NONE', *, *, #370, .T. ) ;
#314 = CARTESIAN_POINT ( 'NONE',  ( -1.249999999999998890, 0.8750000000000011102, 0.8500000000000000888 ) ) ;
#315 = VERTEX_POINT ( 'NONE', #64 ) ;
#316 = CARTESIAN_POINT ( 'NONE',  ( 1.500000000000000000, 0.6250000000000008882, 5.000000000000000000 ) ) ;
#317 = FACE_OUTER_BOUND ( 'NONE', #121, .T. ) ;
#318 = EDGE_CURVE ( 'NONE', #543, #235, #595, .T. ) ;
#319 = ORIENTED_EDGE ( 'NONE', *, *, #126, .T. ) ;
#320 = DIRECTION ( 'NONE',  ( 0.000000000000000000, -1.000000000000000000, 0.000000000000000000 ) ) ;
#321 = CARTESIAN_POINT ( 'NONE',  ( 1.374999999999999556, -0.7500000000000006661, 0.4062940162675282574 ) ) ;
#322 = ORIENTED_EDGE ( 'NONE', *, *, #621, .T. ) ;
#323 = EDGE_CURVE ( 'NONE', #464, #436, #542, .T. ) ;
#324 = FACE_OUTER_BOUND ( 'NONE', #477, .T. ) ;
#325 = CARTESIAN_POINT ( 'NONE',  ( -1.500000000000000000, 0.8750000000000011102, 5.000000000000000000 ) ) ;
#326 = ORIENTED_EDGE ( 'NONE', *, *, #84, .F. ) ;
#327 = AXIS2_PLACEMENT_3D ( 'NONE', #679, #507, #303 ) ;
#328 = AXIS2_PLACEMENT_3D ( 'NONE', #72, #294, #504 ) ;
#329 = CARTESIAN_POINT ( 'NONE',  ( -1.249999999999998890, 0.8750000000000011102, 5.000000000000000000 ) ) ;
#330 = FACE_OUTER_BOUND ( 'NONE', #162, .T. ) ;
#331 = ORIENTED_EDGE ( 'NONE', *, *, #309, .T. ) ;
#332 = DIRECTION ( 'NONE',  ( 1.000000000000000000, 0.000000000000000000, 0.000000000000000000 ) ) ;
#333 = EDGE_CURVE ( 'NONE', #620, #148, #5, .T. ) ;
#334 = DIRECTION ( 'NONE',  ( 1.000000000000000000, 0.000000000000000000, 0.000000000000000000 ) ) ;
#335 = VERTEX_POINT ( 'NONE', #345 ) ;
#336 = PLANE ( 'NONE',  #225 ) ;
#337 = CARTESIAN_POINT ( 'NONE',  ( 1.249999999999998890, -0.8750000000000011102, 5.000000000000000000 ) ) ;
#338 = ORIENTED_EDGE ( 'NONE', *, *, #198, .F. ) ;
#339 = LINE ( 'NONE', #176, #449 ) ;
#340 = ORIENTED_EDGE ( 'NONE', *, *, #351, .T. ) ;
#341 = EDGE_CURVE ( 'NONE', #125, #606, #33, .T. ) ;
#342 = CARTESIAN_POINT ( 'NONE',  ( -2.000000000000000000, 1.375000000000001332, 5.250000000000000000 ) ) ;
#343 = LINE ( 'NONE', #281, #274 ) ;
#344 = ORIENTED_EDGE ( 'NONE', *, *, #664, .T. ) ;
#345 = CARTESIAN_POINT ( 'NONE',  ( 1.249999999999998890, -0.8750000000000011102, 5.000000000000000000 ) ) ;
#346 = ORIENTED_EDGE ( 'NONE', *, *, #589, .T. ) ;
#347 = PLANE ( 'NONE',  #239 ) ;
#348 = VECTOR ( 'NONE', #334, 1000.000000000000000 ) ;
#349 = DIRECTION ( 'NONE',  ( 0.000000000000000000, 0.000000000000000000, 1.000000000000000000 ) ) ;
#350 = ORIENTED_EDGE ( 'NONE', *, *, #163, .F. ) ;
#351 = EDGE_CURVE ( 'NONE', #96, #217, #567, .T. ) ;
#352 = CARTESIAN_POINT ( 'NONE',  ( -1.500000000000000000, -0.6250000000000008882, 5.000000000000000000 ) ) ;
#353 = CARTESIAN_POINT ( 'NONE',  ( 1.062499999999998002, -1.062500000000001554, 5.000000000000000000 ) ) ;
#354 = CARTESIAN_POINT ( 'NONE',  ( 1.249999999999998890, -0.8750000000000011102, 0.8500000000000000888 ) ) ;
#355 = CARTESIAN_POINT ( 'NONE',  ( 0.000000000000000000, -1.375000000000001332, 5.500000000000000000 ) ) ;
#356 = LINE ( 'NONE', #34, #273 ) ;
#357 = LINE ( 'NONE', #518, #631 ) ;
#358 = CARTESIAN_POINT ( 'NONE',  ( -1.500000000000000000, 0.8750000000000011102, 5.000000000000000000 ) ) ;
#359 = VECTOR ( 'NONE', #573, 1000.000000000000000 ) ;
#360 = ORIENTED_EDGE ( 'NONE', *, *, #57, .F. ) ;
#361 = CARTESIAN_POINT ( 'NONE',  ( 1.374999999999999556, -0.7500000000000006661, 0.4062940162675282574 ) ) ;
#362 = EDGE_CURVE ( 'NONE', #96, #65, #297, .T. ) ;
#363 = LINE ( 'NONE', #577, #97 ) ;
#364 = CARTESIAN_POINT ( 'NONE',  ( -2.000000000000000000, -1.375000000000001332, 5.500000000000000000 ) ) ;
#365 = ORIENTED_EDGE ( 'NONE', *, *, #383, .T. ) ;
#366 = DIRECTION ( 'NONE',  ( -0.000000000000000000, 1.000000000000000000, -0.000000000000000000 ) ) ;
#367 = DIRECTION ( 'NONE',  ( 0.000000000000000000, 0.000000000000000000, -1.000000000000000000 ) ) ;
#368 = VERTEX_POINT ( 'NONE', #618 ) ;
#369 = CARTESIAN_POINT ( 'NONE',  ( -1.375000000000000222, -0.7500000000000013323, 0.4062940162675291456 ) ) ;
#370 = EDGE_CURVE ( 'NONE', #623, #111, #247, .T. ) ;
#371 = CARTESIAN_POINT ( 'NONE',  ( 2.000000000000000000, -1.375000000000001332, 5.500000000000000000 ) ) ;
#372 = ORIENTED_EDGE ( 'NONE', *, *, #309, .F. ) ;
#373 = VECTOR ( 'NONE', #645, 1000.000000000000000 ) ;
#374 = CARTESIAN_POINT ( 'NONE',  ( 1.374999999999999556, -0.7500000000000006661, 0.4062940162675282574 ) ) ;
#375 = CARTESIAN_POINT ( 'NONE',  ( 1.375000000000000000, 0.7500000000000011102, 0.4062940162675289235 ) ) ;
#376 =( BOUNDED_CURVE ( )  B_SPLINE_CURVE ( 3, ( #654, #167, #9, #381 ),
 .UNSPECIFIED., .F., .F. ) 
 B_SPLINE_CURVE_WITH_KNOTS ( ( 4, 4 ),
 ( 1.570796326794896780, 2.592390311625273558 ),
 .UNSPECIFIED. ) 
 CURVE ( )  GEOMETRIC_REPRESENTATION_ITEM ( )  RATIONAL_B_SPLINE_CURVE ( ( 1.000000000000000000, 0.9149034379610767598, 0.9149034379610767598, 1.000000000000000000 ) ) 
 REPRESENTATION_ITEM ( '' )  );
#377 = ORIENTED_EDGE ( 'NONE', *, *, #610, .T. ) ;
#378 = CARTESIAN_POINT ( 'NONE',  ( 1.216939074921508324, 0.5919390749215094338, 0.1480280138171313764 ) ) ;
#379 = LINE ( 'NONE', #44, #428 ) ;
#380 = ORIENTED_EDGE ( 'NONE', *, *, #228, .F. ) ;
#381 = CARTESIAN_POINT ( 'NONE',  ( -1.375000000000000000, 0.7500000000000006661, 0.4062940162675286460 ) ) ;
#382 = EDGE_LOOP ( 'NONE', ( #277, #532, #440, #200 ) ) ;
#383 = EDGE_CURVE ( 'NONE', #35, #210, #564, .T. ) ;
#384 = VECTOR ( 'NONE', #204, 1000.000000000000000 ) ;
#385 = CARTESIAN_POINT ( 'NONE',  ( -0.9527946235625355254, -0.3277946235625368021, 3.808831217273842734E-16 ) ) ;
#386 = FACE_OUTER_BOUND ( 'NONE', #27, .T. ) ;
#387 = VERTEX_POINT ( 'NONE', #515 ) ;
#388 = DIRECTION ( 'NONE',  ( 0.000000000000000000, -1.000000000000000000, 0.000000000000000000 ) ) ;
#389 = DIRECTION ( 'NONE',  ( 0.000000000000000000, 0.000000000000000000, -1.000000000000000000 ) ) ;
#390 = ORIENTED_EDGE ( 'NONE', *, *, #282, .F. ) ;
#391 = ADVANCED_FACE ( 'NONE', ( #252 ), #347, .F. ) ;
#392 = DIRECTION ( 'NONE',  ( 0.000000000000000000, 0.000000000000000000, 1.000000000000000000 ) ) ;
#393 = VERTEX_POINT ( 'NONE', #193 ) ;
#394 = AXIS2_PLACEMENT_3D ( 'NONE', #276, #527, #647 ) ;
#395 = CARTESIAN_POINT ( 'NONE',  ( -1.500000000000000000, 0.02500000000000114977, 0.8500000000000000888 ) ) ;
#396 = ORIENTED_EDGE ( 'NONE', *, *, #441, .T. ) ;
#397 = DIRECTION ( 'NONE',  ( 1.000000000000000000, -0.000000000000000000, 0.000000000000000000 ) ) ;
#398 = DIRECTION ( 'NONE',  ( 0.000000000000000000, 1.000000000000000000, 0.000000000000000000 ) ) ;
#399 = EDGE_LOOP ( 'NONE', ( #434, #103, #135, #612, #174, #114 ) ) ;
#400 = LINE ( 'NONE', #614, #437 ) ;
#401 = VERTEX_POINT ( 'NONE', #452 ) ;
#402 = EDGE_CURVE ( 'NONE', #519, #401, #420, .T. ) ;
#403 = CARTESIAN_POINT ( 'NONE',  ( -1.375000000000000222, -0.7500000000000013323, 0.4062940162675291456 ) ) ;
#404 = VECTOR ( 'NONE', #583, 1000.000000000000000 ) ;
#405 = ORIENTED_EDGE ( 'NONE', *, *, #383, .F. ) ;
#406 = CARTESIAN_POINT ( 'NONE',  ( -1.500000000000000000, 0.8750000000000011102, 0.8500000000000000888 ) ) ;
#407 = EDGE_LOOP ( 'NONE', ( #220, #346, #596, #350 ) ) ;
#408 = CARTESIAN_POINT ( 'NONE',  ( 1.457265933848078676, 0.6677340661519225451, 0.5407136640219708523 ) ) ;
#409 = EDGE_CURVE ( 'NONE', #695, #210, #611, .T. ) ;
#410 = DIRECTION ( 'NONE',  ( 1.000000000000000000, -0.000000000000000000, 0.000000000000000000 ) ) ;
#411 = EDGE_LOOP ( 'NONE', ( #313, #480, #265, #649 ) ) ;
#412 = DIRECTION ( 'NONE',  ( 0.000000000000000000, -1.000000000000000000, 0.000000000000000000 ) ) ;
#413 = AXIS2_PLACEMENT_3D ( 'NONE', #633, #456, #410 ) ;
#414 = CARTESIAN_POINT ( 'NONE',  ( 1.500000000000000000, -0.6250000000000008882, 5.000000000000000000 ) ) ;
#415 = AXIS2_PLACEMENT_3D ( 'NONE', #291, #500, #439 ) ;
#416 = VECTOR ( 'NONE', #397, 1000.000000000000000 ) ;
#417 = SHAPE_DEFINITION_REPRESENTATION ( #310, #188 ) ;
#418 = EDGE_CURVE ( 'NONE', #148, #60, #640, .T. ) ;
#419 = DIRECTION ( 'NONE',  ( -0.000000000000000000, -0.000000000000000000, -1.000000000000000000 ) ) ;
#420 =( BOUNDED_CURVE ( )  B_SPLINE_CURVE ( 3, ( #558, #127, #132, #561 ),
 .UNSPECIFIED., .F., .T. ) 
 B_SPLINE_CURVE_WITH_KNOTS ( ( 4, 4 ),
 ( 5.733982965215065342, 6.283185307179586232 ),
 .UNSPECIFIED. ) 
 CURVE ( )  GEOMETRIC_REPRESENTATION_ITEM ( )  RATIONAL_B_SPLINE_CURVE ( ( 1.000000000000000000, 0.9750222812530809913, 0.9750222812530809913, 1.000000000000000000 ) ) 
 REPRESENTATION_ITEM ( '' )  );
#421 = ORIENTED_EDGE ( 'NONE', *, *, #333, .F. ) ;
#422 = APPLICATION_PROTOCOL_DEFINITION ( 'draft international standard', 'automotive_design', 1998, #275 ) ;
#423 = CYLINDRICAL_SURFACE ( 'NONE', #189, 0.8499999999999999778 ) ;
#424 = ORIENTED_EDGE ( 'NONE', *, *, #370, .F. ) ;
#425 = FACE_OUTER_BOUND ( 'NONE', #249, .T. ) ;
#426 = LINE ( 'NONE', #55, #373 ) ;
#427 = EDGE_LOOP ( 'NONE', ( #185, #181, #568, #56 ) ) ;
#428 = VECTOR ( 'NONE', #578, 1000.000000000000000 ) ;
#429 = DIRECTION ( 'NONE',  ( -1.000000000000000000, 0.000000000000000000, 0.000000000000000000 ) ) ;
#430 = LINE ( 'NONE', #479, #32 ) ;
#431 = ORIENTED_EDGE ( 'NONE', *, *, #570, .F. ) ;
#432 = LINE ( 'NONE', #364, #85 ) ;
#433 = EDGE_CURVE ( 'NONE', #387, #156, #255, .T. ) ;
#434 = ORIENTED_EDGE ( 'NONE', *, *, #251, .F. ) ;
#435 = DIRECTION ( 'NONE',  ( 0.7071067811865489050, 0.7071067811865462405, 0.000000000000000000 ) ) ;
#436 = VERTEX_POINT ( 'NONE', #137 ) ;
#437 = VECTOR ( 'NONE', #674, 1000.000000000000000 ) ;
#438 = CARTESIAN_POINT ( 'NONE',  ( 0.000000000000000000, 0.000000000000000000, 5.500000000000000000 ) ) ;
#439 = DIRECTION ( 'NONE',  ( -1.000000000000000000, 0.000000000000000000, 0.000000000000000000 ) ) ;
#440 = ORIENTED_EDGE ( 'NONE', *, *, #462, .F. ) ;
#441 = EDGE_CURVE ( 'NONE', #660, #125, #357, .T. ) ;
#442 = LINE ( 'NONE', #329, #470 ) ;
#443 = DIRECTION ( 'NONE',  ( -0.000000000000000000, 0.000000000000000000, -1.000000000000000000 ) ) ;
#444 = ORIENTED_EDGE ( 'NONE', *, *, #589, .F. ) ;
#445 = SURFACE_SIDE_STYLE ('',( #118 ) ) ;
#446 = PRODUCT_DEFINITION ( 'UNKNOWN', '', #598, #690 ) ;
#447 = CARTESIAN_POINT ( 'NONE',  ( -1.500000000000000000, -0.8750000000000011102, 5.000000000000000000 ) ) ;
#448 = ORIENTED_EDGE ( 'NONE', *, *, #409, .F. ) ;
#449 = VECTOR ( 'NONE', #119, 1000.000000000000000 ) ;
#450 = FACE_OUTER_BOUND ( 'NONE', #465, .T. ) ;
#451 = ORIENTED_EDGE ( 'NONE', *, *, #115, .T. ) ;
#452 = CARTESIAN_POINT ( 'NONE',  ( 1.500000000000000000, -0.6250000000000008882, 0.8500000000000000888 ) ) ;
#453 = PLANE ( 'NONE',  #236 ) ;
#454 = ADVANCED_FACE ( 'NONE', ( #77 ), #124, .F. ) ;
#455 = CARTESIAN_POINT ( 'NONE',  ( 1.333333333333331705, -0.7083333333333330373, 4.583333333333333925 ) ) ;
#456 = DIRECTION ( 'NONE',  ( 0.000000000000000000, 0.7071067811865463515, 0.7071067811865487940 ) ) ;
#457 = ORIENTED_EDGE ( 'NONE', *, *, #246, .F. ) ;
#458 = STYLED_ITEM ( 'NONE', ( #650 ), #653 ) ;
#459 = CARTESIAN_POINT ( 'NONE',  ( -1.457265933848078676, -0.6677340661519223231, 0.5407136640219708523 ) ) ;
#460 = AXIS2_PLACEMENT_3D ( 'NONE', #271, #102, #694 ) ;
#461 = LINE ( 'NONE', #353, #630 ) ;
#462 = EDGE_CURVE ( 'NONE', #35, #283, #243, .T. ) ;
#463 = CARTESIAN_POINT ( 'NONE',  ( -1.292734066151920880, 0.8322659338480795643, 0.5407136640219706303 ) ) ;
#464 = VERTEX_POINT ( 'NONE', #241 ) ;
#465 = EDGE_LOOP ( 'NONE', ( #10, #601, #1, #473, #488 ) ) ;
#466 = LINE ( 'NONE', #201, #687 ) ;
#467 = LINE ( 'NONE', #248, #667 ) ;
#468 = LINE ( 'NONE', #208, #404 ) ;
#469 = CARTESIAN_POINT ( 'NONE',  ( 0.6500000000000001332, -0.02500000000000114977, 0.000000000000000000 ) ) ;
#470 = VECTOR ( 'NONE', #661, 1000.000000000000000 ) ;
#471 = EDGE_LOOP ( 'NONE', ( #344, #17, #431, #360, #372 ) ) ;
#472 = FACE_OUTER_BOUND ( 'NONE', #292, .T. ) ;
#473 = ORIENTED_EDGE ( 'NONE', *, *, #237, .F. ) ;
#474 = EDGE_CURVE ( 'NONE', #315, #393, #400, .T. ) ;
#475 = PLANE ( 'NONE',  #644 ) ;
#476 = CARTESIAN_POINT ( 'NONE',  ( 0.000000000000000000, 1.375000000000001332, 5.500000000000000000 ) ) ;
#477 = EDGE_LOOP ( 'NONE', ( #673, #365, #171, #524 ) ) ;
#478 = CARTESIAN_POINT ( 'NONE',  ( -1.062499999999998002, 1.062500000000001554, 5.000000000000000000 ) ) ;
#479 = CARTESIAN_POINT ( 'NONE',  ( 0.6500000000000001332, 0.000000000000000000, 0.000000000000000000 ) ) ;
#480 = ORIENTED_EDGE ( 'NONE', *, *, #503, .T. ) ;
#481 = VECTOR ( 'NONE', #665, 1000.000000000000000 ) ;
#482 = ADVANCED_FACE ( 'NONE', ( #186 ), #530, .T. ) ;
#483 = DIRECTION ( 'NONE',  ( 0.000000000000000000, -1.000000000000000000, 0.000000000000000000 ) ) ;
#484 = VERTEX_POINT ( 'NONE', #258 ) ;
#485 = CARTESIAN_POINT ( 'NONE',  ( 1.250000000000000666, 0.8750000000000011102, 0.8500000000000000888 ) ) ;
#486 = EDGE_CURVE ( 'NONE', #217, #368, #58, .T. ) ;
#487 = DIRECTION ( 'NONE',  ( 1.000000000000000000, -0.000000000000000000, 0.000000000000000000 ) ) ;
#488 = ORIENTED_EDGE ( 'NONE', *, *, #318, .F. ) ;
#489 =( BOUNDED_CURVE ( )  B_SPLINE_CURVE ( 3, ( #546, #170, #221, #12 ),
 .UNSPECIFIED., .F., .F. ) 
 B_SPLINE_CURVE_WITH_KNOTS ( ( 4, 4 ),
 ( 5.733982965215066230, 6.283185307179586232 ),
 .UNSPECIFIED. ) 
 CURVE ( )  GEOMETRIC_REPRESENTATION_ITEM ( )  RATIONAL_B_SPLINE_CURVE ( ( 1.000000000000000000, 0.9750222812530813243, 0.9750222812530813243, 1.000000000000000000 ) ) 
 REPRESENTATION_ITEM ( '' )  );
#490 = CARTESIAN_POINT ( 'NONE',  ( -0.6500000000000001332, -0.02500000000000114977, 0.000000000000000000 ) ) ;
#491 = CARTESIAN_POINT ( 'NONE',  ( -1.375000000000000222, -0.7500000000000013323, 0.4062940162675291456 ) ) ;
#492 = ORIENTED_EDGE ( 'NONE', *, *, #565, .T. ) ;
#493 = EDGE_CURVE ( 'NONE', #52, #549, #47, .T. ) ;
#494 = VECTOR ( 'NONE', #264, 1000.000000000000000 ) ;
#495 = CARTESIAN_POINT ( 'NONE',  ( 1.250000000000000666, 0.8750000000000011102, 5.000000000000000000 ) ) ;
#496 = ORIENTED_EDGE ( 'NONE', *, *, #14, .T. ) ;
#497 = LINE ( 'NONE', #112, #585 ) ;
#498 = LINE ( 'NONE', #495, #54 ) ;
#499 = ORIENTED_EDGE ( 'NONE', *, *, #251, .T. ) ;
#500 = DIRECTION ( 'NONE',  ( 0.000000000000000000, -0.7071067811865463515, 0.7071067811865487940 ) ) ;
#501 = ORIENTED_EDGE ( 'NONE', *, *, #621, .F. ) ;
#502 = VECTOR ( 'NONE', #110, 999.9999999999998863 ) ;
#503 = EDGE_CURVE ( 'NONE', #111, #315, #468, .T. ) ;
#504 = DIRECTION ( 'NONE',  ( 0.000000000000000000, -0.000000000000000000, 1.000000000000000000 ) ) ;
#505 = CARTESIAN_POINT ( 'NONE',  ( 1.749999999999998890, 0.000000000000000000, 5.000000000000000000 ) ) ;
#506 = CARTESIAN_POINT ( 'NONE',  ( 1.333333333333331705, 0.7083333333333330373, 4.583333333333333925 ) ) ;
#507 = DIRECTION ( 'NONE',  ( 0.7071067811865463515, -0.7071067811865487940, 0.000000000000000000 ) ) ;
#508 = ORIENTED_EDGE ( 'NONE', *, *, #526, .F. ) ;
#509 = DIRECTION ( 'NONE',  ( -0.5773502691896263972, 0.5773502691896263972, 0.5773502691896245098 ) ) ;
#510 =( BOUNDED_CURVE ( )  B_SPLINE_CURVE ( 3, ( #165, #658, #385, #490 ),
 .UNSPECIFIED., .F., .F. ) 
 B_SPLINE_CURVE_WITH_KNOTS ( ( 4, 4 ),
 ( 3.690794995554312230, 4.712388980384689674 ),
 .UNSPECIFIED. ) 
 CURVE ( )  GEOMETRIC_REPRESENTATION_ITEM ( )  RATIONAL_B_SPLINE_CURVE ( ( 1.000000000000000000, 0.9149034379610766488, 0.9149034379610766488, 1.000000000000000000 ) ) 
 REPRESENTATION_ITEM ( '' )  );
#511 = CARTESIAN_POINT ( 'NONE',  ( 0.6500000000000001332, -0.02500000000000114977, 0.000000000000000000 ) ) ;
#512 = ORIENTED_EDGE ( 'NONE', *, *, #341, .F. ) ;
#513 = EDGE_CURVE ( 'NONE', #283, #660, #211, .T. ) ;
#514 = AXIS2_PLACEMENT_3D ( 'NONE', #603, #435, #443 ) ;
#515 = CARTESIAN_POINT ( 'NONE',  ( 1.500000000000000000, 0.6250000000000008882, 0.8500000000000000888 ) ) ;
#516 = FACE_OUTER_BOUND ( 'NONE', #145, .T. ) ;
#517 = CARTESIAN_POINT ( 'NONE',  ( 1.749999999999998890, 1.125000000000000222, 5.000000000000000000 ) ) ;
#518 = CARTESIAN_POINT ( 'NONE',  ( -1.749999999999998890, 0.000000000000000000, 5.000000000000000000 ) ) ;
#519 = VERTEX_POINT ( 'NONE', #374 ) ;
#520 = PRODUCT ( 'Watch Buttons', 'Watch Buttons', '', ( #569 ) ) ;
#521 = DIRECTION ( 'NONE',  ( 0.000000000000000000, 0.000000000000000000, 1.000000000000000000 ) ) ;
#522 = CARTESIAN_POINT ( 'NONE',  ( 1.216939074921507880, -0.5919390749215089897, 0.1480280138171310711 ) ) ;
#523 = UNCERTAINTY_MEASURE_WITH_UNIT (LENGTH_MEASURE( 1.000000000000000082E-05 ), #686, 'distance_accuracy_value', 'NONE');
#524 = ORIENTED_EDGE ( 'NONE', *, *, #503, .F. ) ;
#525 = CARTESIAN_POINT ( 'NONE',  ( -1.500000000000000000, 0.6250000000000008882, 5.000000000000000000 ) ) ;
#526 = EDGE_CURVE ( 'NONE', #549, #65, #683, .T. ) ;
#527 = DIRECTION ( 'NONE',  ( 0.000000000000000000, 1.000000000000000000, 0.000000000000000000 ) ) ;
#528 = AXIS2_PLACEMENT_3D ( 'NONE', #533, #50, #270 ) ;
#529 = EDGE_LOOP ( 'NONE', ( #563, #160, #331, #380 ) ) ;
#530 = CYLINDRICAL_SURFACE ( 'NONE', #597, 0.8499999999999999778 ) ;
#531 = LINE ( 'NONE', #216, #129 ) ;
#532 = ORIENTED_EDGE ( 'NONE', *, *, #513, .F. ) ;
#533 = CARTESIAN_POINT ( 'NONE',  ( 2.000000000000000000, 0.000000000000000000, 5.250000000000000000 ) ) ;
#534 = FACE_OUTER_BOUND ( 'NONE', #88, .T. ) ;
#535 = ORIENTED_EDGE ( 'NONE', *, *, #433, .F. ) ;
#536 = ADVANCED_FACE ( 'NONE', ( #425 ), #699, .F. ) ;
#537 = CARTESIAN_POINT ( 'NONE',  ( -1.500000000000000000, 0.6250000000000008882, 5.000000000000000000 ) ) ;
#538 = DIRECTION ( 'NONE',  ( -0.000000000000000000, -1.000000000000000000, -0.000000000000000000 ) ) ;
#539 = AXIS2_PLACEMENT_3D ( 'NONE', #414, #25, #242 ) ;
#540 = ORIENTED_EDGE ( 'NONE', *, *, #149, .T. ) ;
#541 = VECTOR ( 'NONE', #305, 1000.000000000000000 ) ;
#542 = LINE ( 'NONE', #59, #656 ) ;
#543 = VERTEX_POINT ( 'NONE', #316 ) ;
#544 =( BOUNDED_CURVE ( )  B_SPLINE_CURVE ( 3, ( #321, #522, #260, #469 ),
 .UNSPECIFIED., .F., .F. ) 
 B_SPLINE_CURVE_WITH_KNOTS ( ( 4, 4 ),
 ( 0.5492023419645205573, 1.570796326794896558 ),
 .UNSPECIFIED. ) 
 CURVE ( )  GEOMETRIC_REPRESENTATION_ITEM ( )  RATIONAL_B_SPLINE_CURVE ( ( 1.000000000000000000, 0.9149034379610769818, 0.9149034379610769818, 1.000000000000000000 ) ) 
 REPRESENTATION_ITEM ( '' )  );
#545 = FILL_AREA_STYLE ('',( #233 ) ) ;
#546 = CARTESIAN_POINT ( 'NONE',  ( 1.375000000000000000, 0.7500000000000011102, 0.4062940162675289235 ) ) ;
#547 = ORIENTED_EDGE ( 'NONE', *, *, #657, .F. ) ;
#548 = DIRECTION ( 'NONE',  ( 0.000000000000000000, 0.000000000000000000, 1.000000000000000000 ) ) ;
#549 = VERTEX_POINT ( 'NONE', #537 ) ;
#550 = VECTOR ( 'NONE', #300, 1000.000000000000000 ) ;
#551 = AXIS2_PLACEMENT_3D ( 'NONE', #692, #136, #308 ) ;
#552 = DIRECTION ( 'NONE',  ( -0.7071067811865489050, -0.7071067811865462405, -0.000000000000000000 ) ) ;
#553 = EDGE_LOOP ( 'NONE', ( #604, #63, #492, #535, #444, #139 ) ) ;
#554 =( LENGTH_UNIT ( ) NAMED_UNIT ( * ) SI_UNIT ( .MILLI., .METRE. ) );
#555 = DIRECTION ( 'NONE',  ( 0.5773502691896263972, 0.5773502691896263972, -0.5773502691896245098 ) ) ;
#556 = ORIENTED_EDGE ( 'NONE', *, *, #418, .T. ) ;
#557 = ADVANCED_FACE ( 'NONE', ( #324 ), #475, .F. ) ;
#558 = CARTESIAN_POINT ( 'NONE',  ( 1.374999999999999556, -0.7500000000000006661, 0.4062940162675282574 ) ) ;
#559 = CARTESIAN_POINT ( 'NONE',  ( -2.000000000000000000, 1.375000000000001332, 5.500000000000000000 ) ) ;
#560 = COLOUR_RGB ( '',0.7921568627450980005, 0.8196078431372548767, 0.9333333333333333481 ) ;
#561 = CARTESIAN_POINT ( 'NONE',  ( 1.500000000000000000, -0.6250000000000008882, 0.8500000000000000888 ) ) ;
#562 = CARTESIAN_POINT ( 'NONE',  ( -1.249999999999998890, 0.8750000000000011102, 5.000000000000000000 ) ) ;
#563 = ORIENTED_EDGE ( 'NONE', *, *, #192, .T. ) ;
#564 = LINE ( 'NONE', #299, #541 ) ;
#565 = EDGE_CURVE ( 'NONE', #436, #156, #232, .T. ) ;
#566 = CARTESIAN_POINT ( 'NONE',  ( 1.500000000000000000, 0.8750000000000011102, 5.000000000000000000 ) ) ;
#567 =( BOUNDED_CURVE ( )  B_SPLINE_CURVE ( 3, ( #86, #183, #459, #403 ),
 .UNSPECIFIED., .F., .F. ) 
 B_SPLINE_CURVE_WITH_KNOTS ( ( 4, 4 ),
 ( 3.141592653589793116, 3.690794995554312674 ),
 .UNSPECIFIED. ) 
 CURVE ( )  GEOMETRIC_REPRESENTATION_ITEM ( )  RATIONAL_B_SPLINE_CURVE ( ( 1.000000000000000000, 0.9750222812530813243, 0.9750222812530813243, 1.000000000000000000 ) ) 
 REPRESENTATION_ITEM ( '' )  );
#568 = ORIENTED_EDGE ( 'NONE', *, *, #133, .F. ) ;
#569 = PRODUCT_CONTEXT ( 'NONE', #275, 'mechanical' ) ;
#570 = EDGE_CURVE ( 'NONE', #3, #401, #466, .T. ) ;
#571 = CLOSED_SHELL ( 'NONE', ( #19, #391, #45, #6, #635, #106, #454, #557, #196, #159, #617, #207, #67, #37, #259, #269, #76, #293, #536, #482, #98, #219, #182 ) ) ;
#572 = VECTOR ( 'NONE', #509, 1000.000000000000114 ) ;
#573 = DIRECTION ( 'NONE',  ( -1.000000000000000000, 0.000000000000000000, 0.000000000000000000 ) ) ;
#574 = CARTESIAN_POINT ( 'NONE',  ( 1.500000000000000000, -0.6250000000000008882, 5.000000000000000000 ) ) ;
#575 = EDGE_LOOP ( 'NONE', ( #206, #340, #642, #582, #240 ) ) ;
#576 =( NAMED_UNIT ( * ) SI_UNIT ( $, .STERADIAN. ) SOLID_ANGLE_UNIT ( ) );
#577 = CARTESIAN_POINT ( 'NONE',  ( 2.000000000000000000, 1.375000000000001332, 5.500000000000000000 ) ) ;
#578 = DIRECTION ( 'NONE',  ( 0.000000000000000000, 0.000000000000000000, -1.000000000000000000 ) ) ;
#579 = EDGE_CURVE ( 'NONE', #315, #210, #363, .T. ) ;
#580 = DIRECTION ( 'NONE',  ( -0.000000000000000000, 0.000000000000000000, -1.000000000000000000 ) ) ;
#581 = UNCERTAINTY_MEASURE_WITH_UNIT (LENGTH_MEASURE( 1.000000000000000082E-05 ), #554, 'distance_accuracy_value', 'NONE');
#582 = ORIENTED_EDGE ( 'NONE', *, *, #192, .F. ) ;
#583 = DIRECTION ( 'NONE',  ( 0.000000000000000000, 1.000000000000000000, -0.000000000000000000 ) ) ;
#584 = DIRECTION ( 'NONE',  ( -1.000000000000000000, -0.000000000000000000, -0.000000000000000000 ) ) ;
#585 = VECTOR ( 'NONE', #332, 1000.000000000000000 ) ;
#586 = ORIENTED_EDGE ( 'NONE', *, *, #602, .T. ) ;
#587 = CARTESIAN_POINT ( 'NONE',  ( -1.500000000000000000, 0.8750000000000011102, 5.000000000000000000 ) ) ;
#588 = LINE ( 'NONE', #39, #120 ) ;
#589 = EDGE_CURVE ( 'NONE', #401, #387, #688, .T. ) ;
#590 = ORIENTED_EDGE ( 'NONE', *, *, #418, .F. ) ;
#591 =( BOUNDED_CURVE ( )  B_SPLINE_CURVE ( 3, ( #41, #195, #262, #634 ),
 .UNSPECIFIED., .F., .F. ) 
 B_SPLINE_CURVE_WITH_KNOTS ( ( 4, 4 ),
 ( 5.733982965215066230, 6.283185307179586232 ),
 .UNSPECIFIED. ) 
 CURVE ( )  GEOMETRIC_REPRESENTATION_ITEM ( )  RATIONAL_B_SPLINE_CURVE ( ( 1.000000000000000000, 0.9750222812530813243, 0.9750222812530813243, 1.000000000000000000 ) ) 
 REPRESENTATION_ITEM ( '' )  );
#592 = CARTESIAN_POINT ( 'NONE',  ( 1.375000000000000000, 0.7500000000000011102, 0.4062940162675289235 ) ) ;
#593 = DIRECTION ( 'NONE',  ( 1.000000000000000000, -0.000000000000000000, 0.000000000000000000 ) ) ;
#594 = ORIENTED_EDGE ( 'NONE', *, *, #115, .F. ) ;
#595 = LINE ( 'NONE', #18, #502 ) ;
#596 = ORIENTED_EDGE ( 'NONE', *, *, #164, .T. ) ;
#597 = AXIS2_PLACEMENT_3D ( 'NONE', #101, #412, #693 ) ;
#598 = PRODUCT_DEFINITION_FORMATION_WITH_SPECIFIED_SOURCE ( 'ANY', '', #520, .NOT_KNOWN. ) ;
#599 = CARTESIAN_POINT ( 'NONE',  ( 0.000000000000000000, 0.000000000000000000, 0.000000000000000000 ) ) ;
#600 = CARTESIAN_POINT ( 'NONE',  ( 1.250000000000000666, 0.8750000000000011102, 5.000000000000000000 ) ) ;
#601 = ORIENTED_EDGE ( 'NONE', *, *, #433, .T. ) ;
#602 = EDGE_CURVE ( 'NONE', #268, #464, #636, .T. ) ;
#603 = CARTESIAN_POINT ( 'NONE',  ( -1.250000000000000666, -0.8750000000000011102, 5.000000000000000000 ) ) ;
#604 = ORIENTED_EDGE ( 'NONE', *, *, #198, .T. ) ;
#605 = LINE ( 'NONE', #525, #191 ) ;
#606 = VERTEX_POINT ( 'NONE', #342 ) ;
#607 = AXIS2_PLACEMENT_3D ( 'NONE', #476, #483, #155 ) ;
#608 = PLANE ( 'NONE',  #304 ) ;
#609 = ORIENTED_EDGE ( 'NONE', *, *, #14, .F. ) ;
#610 = EDGE_CURVE ( 'NONE', #217, #268, #510, .T. ) ;
#611 = LINE ( 'NONE', #506, #11 ) ;
#612 = ORIENTED_EDGE ( 'NONE', *, *, #351, .F. ) ;
#613 = PRODUCT_RELATED_PRODUCT_CATEGORY ( 'part', '', ( #520 ) ) ;
#614 = CARTESIAN_POINT ( 'NONE',  ( 0.000000000000000000, 1.375000000000001332, 5.500000000000000000 ) ) ;
#615 = DIRECTION ( 'NONE',  ( -1.000000000000000000, -0.000000000000000000, -0.000000000000000000 ) ) ;
#616 = MECHANICAL_DESIGN_GEOMETRIC_PRESENTATION_REPRESENTATION (  '', ( #458 ), #75 ) ;
#617 = ADVANCED_FACE ( 'NONE', ( #287 ), #336, .T. ) ;
#618 = CARTESIAN_POINT ( 'NONE',  ( -1.250000000000000666, -0.8750000000000011102, 0.8500000000000000888 ) ) ;
#619 = FACE_OUTER_BOUND ( 'NONE', #529, .T. ) ;
#620 = VERTEX_POINT ( 'NONE', #485 ) ;
#621 = EDGE_CURVE ( 'NONE', #148, #52, #442, .T. ) ;
#622 = CARTESIAN_POINT ( 'NONE',  ( -1.249999999999998890, 0.8750000000000011102, 0.8500000000000000888 ) ) ;
#623 = VERTEX_POINT ( 'NONE', #107 ) ;
#624 = APPLICATION_CONTEXT ( 'automotive_design' ) ;
#625 = EDGE_LOOP ( 'NONE', ( #280, #7, #69, #424 ) ) ;
#626 = CARTESIAN_POINT ( 'NONE',  ( 1.375000000000000000, 0.7500000000000011102, 0.4062940162675289235 ) ) ;
#627 = DIRECTION ( 'NONE',  ( -0.000000000000000000, 0.000000000000000000, -1.000000000000000000 ) ) ;
#628 = ORIENTED_EDGE ( 'NONE', *, *, #486, .F. ) ;
#629 = DIRECTION ( 'NONE',  ( 0.000000000000000000, 0.000000000000000000, -1.000000000000000000 ) ) ;
#630 = VECTOR ( 'NONE', #202, 1000.000000000000000 ) ;
#631 = VECTOR ( 'NONE', #398, 1000.000000000000000 ) ;
#632 = CARTESIAN_POINT ( 'NONE',  ( -1.292734066151922212, -0.8322659338480795643, 0.5407136640219708523 ) ) ;
#633 = CARTESIAN_POINT ( 'NONE',  ( 0.000000000000000000, -1.375000000000001332, 5.250000000000000000 ) ) ;
#634 = CARTESIAN_POINT ( 'NONE',  ( -1.500000000000000000, 0.6250000000000008882, 0.8500000000000000888 ) ) ;
#635 = ADVANCED_FACE ( 'NONE', ( #8 ), #61, .F. ) ;
#636 = LINE ( 'NONE', #146, #74 ) ;
#637 = PLANE ( 'NONE',  #514 ) ;
#638 = ORIENTED_EDGE ( 'NONE', *, *, #409, .T. ) ;
#639 =( NAMED_UNIT ( * ) SI_UNIT ( $, .STERADIAN. ) SOLID_ANGLE_UNIT ( ) );
#640 =( BOUNDED_CURVE ( )  B_SPLINE_CURVE ( 3, ( #622, #81, #463, #24 ),
 .UNSPECIFIED., .F., .F. ) 
 B_SPLINE_CURVE_WITH_KNOTS ( ( 4, 4 ),
 ( 3.141592653589793116, 3.690794995554313118 ),
 .UNSPECIFIED. ) 
 CURVE ( )  GEOMETRIC_REPRESENTATION_ITEM ( )  RATIONAL_B_SPLINE_CURVE ( ( 1.000000000000000000, 0.9750222812530813243, 0.9750222812530813243, 1.000000000000000000 ) ) 
 REPRESENTATION_ITEM ( '' )  );
#641 = PLANE ( 'NONE',  #109 ) ;
#642 = ORIENTED_EDGE ( 'NONE', *, *, #486, .T. ) ;
#643 = EDGE_CURVE ( 'NONE', #698, #35, #497, .T. ) ;
#644 = AXIS2_PLACEMENT_3D ( 'NONE', #214, #429, #521 ) ;
#645 = DIRECTION ( 'NONE',  ( 0.000000000000000000, 0.000000000000000000, 1.000000000000000000 ) ) ;
#646 = ORIENTED_EDGE ( 'NONE', *, *, #684, .T. ) ;
#647 = DIRECTION ( 'NONE',  ( 0.000000000000000000, 0.000000000000000000, 1.000000000000000000 ) ) ;
#648 = EDGE_CURVE ( 'NONE', #393, #623, #172, .T. ) ;
#649 = ORIENTED_EDGE ( 'NONE', *, *, #648, .T. ) ;
#650 = PRESENTATION_STYLE_ASSIGNMENT (( #175 ) ) ;
#651 = DIRECTION ( 'NONE',  ( 1.000000000000000000, 0.000000000000000000, -0.000000000000000000 ) ) ;
#652 = ORIENTED_EDGE ( 'NONE', *, *, #341, .T. ) ;
#653 = MANIFOLD_SOLID_BREP ( 'Fillet1', #571 ) ;
#654 = CARTESIAN_POINT ( 'NONE',  ( -0.6500000000000001332, 0.02500000000000114977, 0.000000000000000000 ) ) ;
#655 = ORIENTED_EDGE ( 'NONE', *, *, #362, .T. ) ;
#656 = VECTOR ( 'NONE', #487, 1000.000000000000000 ) ;
#657 = EDGE_CURVE ( 'NONE', #549, #117, #605, .T. ) ;
#658 = CARTESIAN_POINT ( 'NONE',  ( -1.216939074921508324, -0.5919390749215095449, 0.1480280138171314874 ) ) ;
#659 = LINE ( 'NONE', #337, #668 ) ;
#660 = VERTEX_POINT ( 'NONE', #669 ) ;
#661 = DIRECTION ( 'NONE',  ( 0.000000000000000000, 0.000000000000000000, 1.000000000000000000 ) ) ;
#662 = CARTESIAN_POINT ( 'NONE',  ( 2.000000000000000000, 1.375000000000001332, 5.250000000000000000 ) ) ;
#663 = VERTEX_POINT ( 'NONE', #83 ) ;
#664 = EDGE_CURVE ( 'NONE', #484, #519, #150, .T. ) ;
#665 = DIRECTION ( 'NONE',  ( 0.000000000000000000, -1.000000000000000000, 0.000000000000000000 ) ) ;
#666 = EDGE_LOOP ( 'NONE', ( #227, #286, #655, #508 ) ) ;
#667 = VECTOR ( 'NONE', #23, 1000.000000000000000 ) ;
#668 = VECTOR ( 'NONE', #548, 1000.000000000000000 ) ;
#669 = CARTESIAN_POINT ( 'NONE',  ( -1.749999999999998890, -1.125000000000000222, 5.000000000000000000 ) ) ;
#670 = EDGE_LOOP ( 'NONE', ( #30, #40, #322, #594 ) ) ;
#671 = CARTESIAN_POINT ( 'NONE',  ( -1.333333333333331705, 0.7083333333333330373, 4.583333333333333925 ) ) ;
#672 = DIRECTION ( 'NONE',  ( 1.000000000000000000, 0.000000000000000000, -0.000000000000000000 ) ) ;
#673 = ORIENTED_EDGE ( 'NONE', *, *, #26, .T. ) ;
#674 = DIRECTION ( 'NONE',  ( -1.000000000000000000, 0.000000000000000000, 0.000000000000000000 ) ) ;
#675 = DIRECTION ( 'NONE',  ( -0.000000000000000000, -0.000000000000000000, -1.000000000000000000 ) ) ;
#676 = EDGE_CURVE ( 'NONE', #368, #484, #89, .T. ) ;
#677 = VECTOR ( 'NONE', #584, 1000.000000000000000 ) ;
#678 = DIRECTION ( 'NONE',  ( 0.000000000000000000, -0.000000000000000000, -1.000000000000000000 ) ) ;
#679 = CARTESIAN_POINT ( 'NONE',  ( -1.500000000000000000, 0.6250000000000008882, 5.000000000000000000 ) ) ;
#680 = EDGE_LOOP ( 'NONE', ( #184, #540, #213, #123, #190, #261, #451, #138 ) ) ;
#681 = DIRECTION ( 'NONE',  ( 0.000000000000000000, -0.000000000000000000, 1.000000000000000000 ) ) ;
#682 = ORIENTED_EDGE ( 'NONE', *, *, #493, .F. ) ;
#683 = LINE ( 'NONE', #587, #66 ) ;
#684 = EDGE_CURVE ( 'NONE', #60, #117, #591, .T. ) ;
#685 = FACE_OUTER_BOUND ( 'NONE', #666, .T. ) ;
#686 =( LENGTH_UNIT ( ) NAMED_UNIT ( * ) SI_UNIT ( .MILLI., .METRE. ) );
#687 = VECTOR ( 'NONE', #143, 1000.000000000000000 ) ;
#688 = LINE ( 'NONE', #311, #384 ) ;
#689 = LINE ( 'NONE', #325, #677 ) ;
#690 = PRODUCT_DEFINITION_CONTEXT ( 'detailed design', #624, 'design' ) ;
#691 = ORIENTED_EDGE ( 'NONE', *, *, #579, .T. ) ;
#692 = CARTESIAN_POINT ( 'NONE',  ( 0.000000000000000000, 0.000000000000000000, 0.000000000000000000 ) ) ;
#693 = DIRECTION ( 'NONE',  ( 0.000000000000000000, 0.000000000000000000, -1.000000000000000000 ) ) ;
#694 = DIRECTION ( 'NONE',  ( 1.000000000000000000, 0.000000000000000000, 0.000000000000000000 ) ) ;
#695 = VERTEX_POINT ( 'NONE', #517 ) ;
#696 = DIRECTION ( 'NONE',  ( -1.000000000000000000, 0.000000000000000000, 0.000000000000000000 ) ) ;
#697 = DIRECTION ( 'NONE',  ( 0.000000000000000000, -1.000000000000000000, 0.000000000000000000 ) ) ;
#698 = VERTEX_POINT ( 'NONE', #93 ) ;
#699 = PLANE ( 'NONE',  #528 ) ;
#700 = AXIS2_PLACEMENT_3D ( 'NONE', #395, #173, #392 ) ;
#701 = CARTESIAN_POINT ( 'NONE',  ( -1.749999999999998890, 1.125000000000000222, 5.000000000000000000 ) ) ;
ENDSEC;
END-ISO-10303-21;
