ISO-10303-21;
HEADER;
FILE_DESCRIPTION (( 'STEP AP214' ),
    '1' );
FILE_NAME ('Watch Spacer.STEP',
    '2025-11-08T05:16:35',
    ( '' ),
    ( '' ),
    'SwSTEP 2.0',
    'SolidWorks 2025',
    '' );
FILE_SCHEMA (( 'AUTOMOTIVE_DESIGN' ));
ENDSEC;

DATA;
#1 = CARTESIAN_POINT ( 'NONE',  ( 0.000000000000000000, 0.000000000000000000, 0.000000000000000000 ) ) ;
#2 = EDGE_LOOP ( 'NONE', ( #74, #158, #125, #240 ) ) ;
#3 = CARTESIAN_POINT ( 'NONE',  ( 0.000000000000000000, 0.000000000000000000, 0.000000000000000000 ) ) ;
#4 = CIRCLE ( 'NONE', #135, 1.800000000000000488 ) ;
#5 = DIRECTION ( 'NONE',  ( 0.000000000000000000, 0.000000000000000000, 1.000000000000000000 ) ) ;
#6 = PRODUCT_CONTEXT ( 'NONE', #297, 'mechanical' ) ;
#7 = DIRECTION ( 'NONE',  ( -0.000000000000000000, -1.000000000000000000, -0.000000000000000000 ) ) ;
#8 = EDGE_LOOP ( 'NONE', ( #303, #294, #32, #270 ) ) ;
#9 = EDGE_CURVE ( 'NONE', #24, #361, #373, .T. ) ;
#10 = DIRECTION ( 'NONE',  ( -0.000000000000000000, -1.000000000000000000, -0.000000000000000000 ) ) ;
#11 = VERTEX_POINT ( 'NONE', #224 ) ;
#12 = AXIS2_PLACEMENT_3D ( 'NONE', #301, #353, #228 ) ;
#13 = MECHANICAL_DESIGN_GEOMETRIC_PRESENTATION_REPRESENTATION (  '', ( #315 ), #223 ) ;
#14 = DIRECTION ( 'NONE',  ( -0.000000000000000000, -1.000000000000000000, -0.000000000000000000 ) ) ;
#15 = EDGE_CURVE ( 'NONE', #275, #133, #82, .T. ) ;
#16 = DIRECTION ( 'NONE',  ( 0.000000000000000000, 0.7071067811865466846, 0.7071067811865483499 ) ) ;
#17 = VERTEX_POINT ( 'NONE', #165 ) ;
#18 = CARTESIAN_POINT ( 'NONE',  ( 0.000000000000000000, 3.296999999999999709, 0.000000000000000000 ) ) ;
#19 = ADVANCED_FACE ( 'NONE', ( #134 ), #116, .F. ) ;
#20 = CYLINDRICAL_SURFACE ( 'NONE', #292, 2.000000000000000000 ) ;
#21 = AXIS2_PLACEMENT_3D ( 'NONE', #232, #269, #380 ) ;
#22 = EDGE_LOOP ( 'NONE', ( #122, #392 ) ) ;
#23 = DIRECTION ( 'NONE',  ( 0.000000000000000000, -0.7071067811865499042, -0.7071067811865452413 ) ) ;
#24 = VERTEX_POINT ( 'NONE', #260 ) ;
#25 = CARTESIAN_POINT ( 'NONE',  ( 0.000000000000000000, 3.296999999999999709, 0.000000000000000000 ) ) ;
#26 = ORIENTED_EDGE ( 'NONE', *, *, #144, .F. ) ;
#27 = CARTESIAN_POINT ( 'NONE',  ( 1.530808498934191571E-16, 0.1999999999999996503, 1.250000000000000000 ) ) ;
#28 = EDGE_LOOP ( 'NONE', ( #388, #145, #98, #191 ) ) ;
#29 = CARTESIAN_POINT ( 'NONE',  ( 2.449293598294706414E-16, 0.1999999999999992339, 2.000000000000000000 ) ) ;
#30 = FACE_OUTER_BOUND ( 'NONE', #90, .T. ) ;
#31 = AXIS2_PLACEMENT_3D ( 'NONE', #153, #366, #393 ) ;
#32 = ORIENTED_EDGE ( 'NONE', *, *, #144, .T. ) ;
#33 = DIRECTION ( 'NONE',  ( 1.000000000000000000, 0.000000000000000000, 0.000000000000000000 ) ) ;
#34 = EDGE_CURVE ( 'NONE', #17, #333, #157, .T. ) ;
#35 = DIRECTION ( 'NONE',  ( 0.000000000000000000, 0.000000000000000000, -1.000000000000000000 ) ) ;
#36 = MANIFOLD_SOLID_BREP ( 'Chamfer1', #257 ) ;
#37 = PRESENTATION_LAYER_ASSIGNMENT (  '', '', ( #315 ) ) ;
#38 =( NAMED_UNIT ( * ) SI_UNIT ( $, .STERADIAN. ) SOLID_ANGLE_UNIT ( ) );
#39 = DIRECTION ( 'NONE',  ( -0.000000000000000000, 1.000000000000000000, -0.000000000000000000 ) ) ;
#40 = VERTEX_POINT ( 'NONE', #196 ) ;
#41 = CARTESIAN_POINT ( 'NONE',  ( 0.000000000000000000, 0.000000000000000000, 0.000000000000000000 ) ) ;
#42 = ADVANCED_FACE ( 'NONE', ( #285 ), #255, .F. ) ;
#43 = ORIENTED_EDGE ( 'NONE', *, *, #178, .F. ) ;
#44 = AXIS2_PLACEMENT_3D ( 'NONE', #110, #328, #46 ) ;
#45 = DIRECTION ( 'NONE',  ( 0.000000000000000000, 0.000000000000000000, 1.000000000000000000 ) ) ;
#46 = DIRECTION ( 'NONE',  ( 0.000000000000000000, 0.000000000000000000, 1.000000000000000000 ) ) ;
#47 = ORIENTED_EDGE ( 'NONE', *, *, #101, .F. ) ;
#48 = EDGE_CURVE ( 'NONE', #233, #305, #168, .T. ) ;
#49 = DIRECTION ( 'NONE',  ( 0.000000000000000000, 0.000000000000000000, -1.000000000000000000 ) ) ;
#50 = ORIENTED_EDGE ( 'NONE', *, *, #200, .T. ) ;
#51 = LINE ( 'NONE', #296, #278 ) ;
#52 = CONICAL_SURFACE ( 'NONE', #293, 1.250000000000000000, 0.7853981633974509435 ) ;
#53 = AXIS2_PLACEMENT_3D ( 'NONE', #339, #59, #220 ) ;
#54 = EDGE_LOOP ( 'NONE', ( #167, #97, #61, #139 ) ) ;
#55 = EDGE_CURVE ( 'NONE', #166, #11, #343, .T. ) ;
#56 = CARTESIAN_POINT ( 'NONE',  ( 1.775737858763664135E-16, 3.496999999999999886, -1.450000000000001732 ) ) ;
#57 = ORIENTED_EDGE ( 'NONE', *, *, #362, .T. ) ;
#58 = DIRECTION ( 'NONE',  ( -0.000000000000000000, 1.000000000000000000, -0.000000000000000000 ) ) ;
#59 = DIRECTION ( 'NONE',  ( 0.000000000000000000, 1.000000000000000000, 0.000000000000000000 ) ) ;
#60 = EDGE_CURVE ( 'NONE', #281, #386, #314, .T. ) ;
#61 = ORIENTED_EDGE ( 'NONE', *, *, #9, .F. ) ;
#62 = UNCERTAINTY_MEASURE_WITH_UNIT (LENGTH_MEASURE( 1.000000000000000082E-05 ), #349, 'distance_accuracy_value', 'NONE');
#63 = CARTESIAN_POINT ( 'NONE',  ( 0.000000000000000000, 3.496999999999999886, -1.800000000000001155 ) ) ;
#64 = AXIS2_PLACEMENT_3D ( 'NONE', #375, #39, #5 ) ;
#65 = AXIS2_PLACEMENT_3D ( 'NONE', #150, #121, #273 ) ;
#66 = ORIENTED_EDGE ( 'NONE', *, *, #350, .T. ) ;
#67 = DIRECTION ( 'NONE',  ( 0.000000000000000000, 0.7071067811865456854, 0.7071067811865493491 ) ) ;
#68 = PRODUCT ( 'Watch Spacer', 'Watch Spacer', '', ( #6 ) ) ;
#69 = AXIS2_PLACEMENT_3D ( 'NONE', #75, #206, #276 ) ;
#70 = CARTESIAN_POINT ( 'NONE',  ( 1.530808498934191571E-16, 3.496999999999999886, 1.250000000000000000 ) ) ;
#71 = ORIENTED_EDGE ( 'NONE', *, *, #190, .T. ) ;
#72 = ADVANCED_FACE ( 'NONE', ( #129 ), #109, .T. ) ;
#73 = DIRECTION ( 'NONE',  ( 0.000000000000000000, 0.000000000000000000, -1.000000000000000000 ) ) ;
#74 = ORIENTED_EDGE ( 'NONE', *, *, #115, .F. ) ;
#75 = CARTESIAN_POINT ( 'NONE',  ( 0.000000000000000000, 0.1999999999999996503, 0.000000000000000000 ) ) ;
#76 = AXIS2_PLACEMENT_3D ( 'NONE', #77, #331, #179 ) ;
#77 = CARTESIAN_POINT ( 'NONE',  ( 0.000000000000000000, 3.496999999999999886, 0.000000000000000000 ) ) ;
#78 = CARTESIAN_POINT ( 'NONE',  ( 0.000000000000000000, 3.496999999999999886, -1.250000000000000000 ) ) ;
#79 = ORIENTED_EDGE ( 'NONE', *, *, #9, .T. ) ;
#80 = CARTESIAN_POINT ( 'NONE',  ( 0.000000000000000000, 0.000000000000000000, -1.449999999999999067 ) ) ;
#81 = ORIENTED_EDGE ( 'NONE', *, *, #132, .F. ) ;
#82 = CIRCLE ( 'NONE', #290, 1.450000000000001732 ) ;
#83 = FACE_OUTER_BOUND ( 'NONE', #112, .T. ) ;
#84 = COLOUR_RGB ( '',0.7921568627450980005, 0.8196078431372548767, 0.9333333333333333481 ) ;
#85 = DIRECTION ( 'NONE',  ( -0.000000000000000000, 1.000000000000000000, -0.000000000000000000 ) ) ;
#86 = ORIENTED_EDGE ( 'NONE', *, *, #324, .F. ) ;
#87 = ADVANCED_FACE ( 'NONE', ( #291 ), #94, .F. ) ;
#88 = LINE ( 'NONE', #368, #397 ) ;
#89 = LINE ( 'NONE', #184, #334 ) ;
#90 = EDGE_LOOP ( 'NONE', ( #272, #182 ) ) ;
#91 = CARTESIAN_POINT ( 'NONE',  ( 0.000000000000000000, 3.296999999999999709, 0.000000000000000000 ) ) ;
#92 = FACE_BOUND ( 'NONE', #22, .T. ) ;
#93 = APPLICATION_PROTOCOL_DEFINITION ( 'draft international standard', 'automotive_design', 1998, #297 ) ;
#94 = CONICAL_SURFACE ( 'NONE', #204, 1.449999999999999067, 0.7853981633974467247 ) ;
#95 = EDGE_CURVE ( 'NONE', #233, #275, #131, .T. ) ;
#96 = DIRECTION ( 'NONE',  ( 8.659560562354920532E-17, -0.7071067811865486830, 0.7071067811865464625 ) ) ;
#97 = ORIENTED_EDGE ( 'NONE', *, *, #319, .T. ) ;
#98 = ORIENTED_EDGE ( 'NONE', *, *, #95, .T. ) ;
#99 = CIRCLE ( 'NONE', #327, 1.449999999999999067 ) ;
#100 = DIRECTION ( 'NONE',  ( 0.000000000000000000, 0.000000000000000000, 1.000000000000000000 ) ) ;
#101 = EDGE_CURVE ( 'NONE', #11, #166, #4, .T. ) ;
#102 = FILL_AREA_STYLE_COLOUR ( '', #84 ) ;
#103 = CARTESIAN_POINT ( 'NONE',  ( 0.000000000000000000, 0.000000000000000000, 0.000000000000000000 ) ) ;
#104 = EDGE_CURVE ( 'NONE', #166, #281, #195, .T. ) ;
#105 = CONICAL_SURFACE ( 'NONE', #370, 1.250000000000000000, 0.7853981633974509435 ) ;
#106 = CARTESIAN_POINT ( 'NONE',  ( 0.000000000000000000, 3.496999999999999886, 0.000000000000000000 ) ) ;
#107 = DIRECTION ( 'NONE',  ( 0.000000000000000000, 0.000000000000000000, 1.000000000000000000 ) ) ;
#108 = CARTESIAN_POINT ( 'NONE',  ( 0.000000000000000000, 3.496999999999999886, 0.000000000000000000 ) ) ;
#109 = CONICAL_SURFACE ( 'NONE', #136, 2.000000000000000000, 0.7853981633974492782 ) ;
#110 = CARTESIAN_POINT ( 'NONE',  ( 0.000000000000000000, 0.1999999999999996503, 0.000000000000000000 ) ) ;
#111 = DIRECTION ( 'NONE',  ( 0.000000000000000000, 1.000000000000000000, 0.000000000000000000 ) ) ;
#112 = EDGE_LOOP ( 'NONE', ( #222, #268, #365, #26 ) ) ;
#113 = CARTESIAN_POINT ( 'NONE',  ( 0.000000000000000000, 0.000000000000000000, 0.000000000000000000 ) ) ;
#114 = VERTEX_POINT ( 'NONE', #80 ) ;
#115 = EDGE_CURVE ( 'NONE', #250, #233, #212, .T. ) ;
#116 = CONICAL_SURFACE ( 'NONE', #235, 1.449999999999999067, 0.7853981633974467247 ) ;
#117 = FACE_OUTER_BOUND ( 'NONE', #2, .T. ) ;
#118 = CIRCLE ( 'NONE', #205, 2.000000000000000000 ) ;
#119 = CARTESIAN_POINT ( 'NONE',  ( 2.449293598294706414E-16, 3.297000000000000153, 2.000000000000000000 ) ) ;
#120 = EDGE_LOOP ( 'NONE', ( #43, #57, #346, #174 ) ) ;
#121 = DIRECTION ( 'NONE',  ( -0.000000000000000000, -1.000000000000000000, -0.000000000000000000 ) ) ;
#122 = ORIENTED_EDGE ( 'NONE', *, *, #15, .T. ) ;
#123 = CARTESIAN_POINT ( 'NONE',  ( 2.449293598294706414E-16, 3.496999999999999886, 2.000000000000000000 ) ) ;
#124 = EDGE_CURVE ( 'NONE', #24, #386, #51, .T. ) ;
#125 = ORIENTED_EDGE ( 'NONE', *, *, #15, .F. ) ;
#126 = DIRECTION ( 'NONE',  ( 0.000000000000000000, 0.000000000000000000, -1.000000000000000000 ) ) ;
#127 = CONICAL_SURFACE ( 'NONE', #322, 1.800000000000001155, 0.7853981633974450594 ) ;
#128 =( GEOMETRIC_REPRESENTATION_CONTEXT ( 3 ) GLOBAL_UNCERTAINTY_ASSIGNED_CONTEXT ( ( #310 ) ) GLOBAL_UNIT_ASSIGNED_CONTEXT ( ( #214, #151, #274 ) ) REPRESENTATION_CONTEXT ( 'NONE', 'WORKASPACE' ) );
#129 = FACE_OUTER_BOUND ( 'NONE', #199, .T. ) ;
#130 = PRODUCT_DEFINITION_SHAPE ( 'NONE', 'NONE',  #156 ) ;
#131 = LINE ( 'NONE', #254, #243 ) ;
#132 = EDGE_CURVE ( 'NONE', #333, #17, #186, .T. ) ;
#133 = VERTEX_POINT ( 'NONE', #56 ) ;
#134 = FACE_OUTER_BOUND ( 'NONE', #120, .T. ) ;
#135 = AXIS2_PLACEMENT_3D ( 'NONE', #225, #10, #348 ) ;
#136 = AXIS2_PLACEMENT_3D ( 'NONE', #287, #377, #100 ) ;
#137 = DIRECTION ( 'NONE',  ( -0.000000000000000000, -1.000000000000000000, -0.000000000000000000 ) ) ;
#138 = FACE_OUTER_BOUND ( 'NONE', #394, .T. ) ;
#139 = ORIENTED_EDGE ( 'NONE', *, *, #231, .F. ) ;
#140 = DIRECTION ( 'NONE',  ( 0.000000000000000000, 0.000000000000000000, -1.000000000000000000 ) ) ;
#141 = DIRECTION ( 'NONE',  ( 0.000000000000000000, -1.000000000000000000, 0.000000000000000000 ) ) ;
#142 = ORIENTED_EDGE ( 'NONE', *, *, #399, .T. ) ;
#143 = FACE_BOUND ( 'NONE', #286, .T. ) ;
#144 = EDGE_CURVE ( 'NONE', #250, #40, #264, .T. ) ;
#145 = ORIENTED_EDGE ( 'NONE', *, *, #354, .F. ) ;
#146 = CARTESIAN_POINT ( 'NONE',  ( 0.000000000000000000, 3.296999999999999709, -1.250000000000000000 ) ) ;
#147 = DIRECTION ( 'NONE',  ( 0.000000000000000000, 0.000000000000000000, 1.000000000000000000 ) ) ;
#148 = ORIENTED_EDGE ( 'NONE', *, *, #259, .F. ) ;
#149 = VECTOR ( 'NONE', #384, 1000.000000000000000 ) ;
#150 = CARTESIAN_POINT ( 'NONE',  ( 0.000000000000000000, 3.496999999999999886, 0.000000000000000000 ) ) ;
#151 =( NAMED_UNIT ( * ) PLANE_ANGLE_UNIT ( ) SI_UNIT ( $, .RADIAN. ) );
#152 = EDGE_LOOP ( 'NONE', ( #367, #215, #208, #86 ) ) ;
#153 = CARTESIAN_POINT ( 'NONE',  ( 0.000000000000000000, 3.496999999999999886, 0.000000000000000000 ) ) ;
#154 = DIRECTION ( 'NONE',  ( 0.000000000000000000, 0.000000000000000000, 1.000000000000000000 ) ) ;
#155 = DIRECTION ( 'NONE',  ( 0.000000000000000000, -1.000000000000000000, 0.000000000000000000 ) ) ;
#156 = PRODUCT_DEFINITION ( 'UNKNOWN', '', #279, #317 ) ;
#157 = CIRCLE ( 'NONE', #258, 1.800000000000001155 ) ;
#158 = ORIENTED_EDGE ( 'NONE', *, *, #159, .T. ) ;
#159 = EDGE_CURVE ( 'NONE', #250, #133, #171, .T. ) ;
#160 = CARTESIAN_POINT ( 'NONE',  ( 0.000000000000000000, 3.496999999999999886, 0.000000000000000000 ) ) ;
#161 = FILL_AREA_STYLE ('',( #102 ) ) ;
#162 = VECTOR ( 'NONE', #16, 1000.000000000000000 ) ;
#163 = AXIS2_PLACEMENT_3D ( 'NONE', #1, #226, #33 ) ;
#164 = ADVANCED_FACE ( 'NONE', ( #299 ), #127, .T. ) ;
#165 = CARTESIAN_POINT ( 'NONE',  ( 2.326828918379972351E-16, 3.496999999999999886, 1.800000000000001155 ) ) ;
#166 = VERTEX_POINT ( 'NONE', #239 ) ;
#167 = ORIENTED_EDGE ( 'NONE', *, *, #34, .F. ) ;
#168 = LINE ( 'NONE', #70, #169 ) ;
#169 = VECTOR ( 'NONE', #325, 1000.000000000000000 ) ;
#170 = ORIENTED_EDGE ( 'NONE', *, *, #60, .F. ) ;
#171 = LINE ( 'NONE', #295, #391 ) ;
#172 = CARTESIAN_POINT ( 'NONE',  ( 0.000000000000000000, 3.496999999999999886, 0.000000000000000000 ) ) ;
#173 = ADVANCED_FACE ( 'NONE', ( #138 ), #20, .T. ) ;
#174 = ORIENTED_EDGE ( 'NONE', *, *, #379, .F. ) ;
#175 = FACE_OUTER_BOUND ( 'NONE', #28, .T. ) ;
#176 = ORIENTED_EDGE ( 'NONE', *, *, #319, .F. ) ;
#177 = AXIS2_PLACEMENT_3D ( 'NONE', #312, #247, #154 ) ;
#178 = EDGE_CURVE ( 'NONE', #305, #40, #253, .T. ) ;
#179 = DIRECTION ( 'NONE',  ( 0.000000000000000000, 0.000000000000000000, -1.000000000000000000 ) ) ;
#180 = ORIENTED_EDGE ( 'NONE', *, *, #190, .F. ) ;
#181 = DIRECTION ( 'NONE',  ( 8.659560562354957510E-17, 0.7071067811865456854, -0.7071067811865493491 ) ) ;
#182 = ORIENTED_EDGE ( 'NONE', *, *, #34, .T. ) ;
#183 = DIRECTION ( 'NONE',  ( 0.000000000000000000, 0.000000000000000000, 1.000000000000000000 ) ) ;
#184 = CARTESIAN_POINT ( 'NONE',  ( 0.000000000000000000, 0.000000000000000000, -1.449999999999999067 ) ) ;
#185 = ORIENTED_EDGE ( 'NONE', *, *, #231, .T. ) ;
#186 = CIRCLE ( 'NONE', #382, 1.800000000000001155 ) ;
#187 = LINE ( 'NONE', #123, #332 ) ;
#188 = LINE ( 'NONE', #369, #230 ) ;
#189 = ADVANCED_FACE ( 'NONE', ( #175 ), #105, .F. ) ;
#190 = EDGE_CURVE ( 'NONE', #289, #114, #99, .T. ) ;
#191 = ORIENTED_EDGE ( 'NONE', *, *, #335, .F. ) ;
#192 = CONICAL_SURFACE ( 'NONE', #266, 2.000000000000000000, 0.7853981633974492782 ) ;
#193 = CIRCLE ( 'NONE', #352, 1.250000000000000000 ) ;
#194 = DIRECTION ( 'NONE',  ( 0.000000000000000000, 0.000000000000000000, 1.000000000000000000 ) ) ;
#195 = LINE ( 'NONE', #320, #162 ) ;
#196 = CARTESIAN_POINT ( 'NONE',  ( 0.000000000000000000, 0.1999999999999996503, -1.250000000000000000 ) ) ;
#197 = AXIS2_PLACEMENT_3D ( 'NONE', #160, #201, #35 ) ;
#198 = DIRECTION ( 'NONE',  ( -0.000000000000000000, -1.000000000000000000, -0.000000000000000000 ) ) ;
#199 = EDGE_LOOP ( 'NONE', ( #47, #50, #170, #371 ) ) ;
#200 = EDGE_CURVE ( 'NONE', #11, #386, #387, .T. ) ;
#201 = DIRECTION ( 'NONE',  ( -0.000000000000000000, -1.000000000000000000, -0.000000000000000000 ) ) ;
#202 = CYLINDRICAL_SURFACE ( 'NONE', #76, 1.250000000000000000 ) ;
#203 = ADVANCED_FACE ( 'NONE', ( #304 ), #358, .T. ) ;
#204 = AXIS2_PLACEMENT_3D ( 'NONE', #3, #7, #126 ) ;
#205 = AXIS2_PLACEMENT_3D ( 'NONE', #216, #58, #183 ) ;
#206 = DIRECTION ( 'NONE',  ( -0.000000000000000000, -1.000000000000000000, -0.000000000000000000 ) ) ;
#207 = DIRECTION ( 'NONE',  ( 0.000000000000000000, 0.000000000000000000, 1.000000000000000000 ) ) ;
#208 = ORIENTED_EDGE ( 'NONE', *, *, #104, .T. ) ;
#209 = ADVANCED_FACE ( 'NONE', ( #83 ), #202, .F. ) ;
#210 = DIRECTION ( 'NONE',  ( 0.000000000000000000, 0.000000000000000000, -1.000000000000000000 ) ) ;
#211 = EDGE_LOOP ( 'NONE', ( #337, #148, #316, #180 ) ) ;
#212 = CIRCLE ( 'NONE', #300, 1.250000000000000000 ) ;
#213 = CARTESIAN_POINT ( 'NONE',  ( 1.530808498934191571E-16, 3.296999999999999709, 1.250000000000000000 ) ) ;
#214 =( LENGTH_UNIT ( ) NAMED_UNIT ( * ) SI_UNIT ( .MILLI., .METRE. ) );
#215 = ORIENTED_EDGE ( 'NONE', *, *, #55, .F. ) ;
#216 = CARTESIAN_POINT ( 'NONE',  ( 0.000000000000000000, 0.1999999999999992339, 0.000000000000000000 ) ) ;
#217 = DIRECTION ( 'NONE',  ( 0.000000000000000000, -0.7071067811865486830, -0.7071067811865464625 ) ) ;
#218 = ORIENTED_EDGE ( 'NONE', *, *, #55, .T. ) ;
#219 = DIRECTION ( 'NONE',  ( 8.659560562354904508E-17, -0.7071067811865499042, 0.7071067811865452413 ) ) ;
#220 = DIRECTION ( 'NONE',  ( 0.000000000000000000, -0.000000000000000000, 1.000000000000000000 ) ) ;
#221 = VECTOR ( 'NONE', #23, 1000.000000000000114 ) ;
#222 = ORIENTED_EDGE ( 'NONE', *, *, #115, .T. ) ;
#223 =( GEOMETRIC_REPRESENTATION_CONTEXT ( 3 ) GLOBAL_UNCERTAINTY_ASSIGNED_CONTEXT ( ( #62 ) ) GLOBAL_UNIT_ASSIGNED_CONTEXT ( ( #349, #323, #38 ) ) REPRESENTATION_CONTEXT ( 'NONE', 'WORKASPACE' ) );
#224 = CARTESIAN_POINT ( 'NONE',  ( 2.326828918379971365E-16, 0.000000000000000000, -1.800000000000000488 ) ) ;
#225 = CARTESIAN_POINT ( 'NONE',  ( 0.000000000000000000, 0.000000000000000000, 0.000000000000000000 ) ) ;
#226 = DIRECTION ( 'NONE',  ( 0.000000000000000000, 0.000000000000000000, 1.000000000000000000 ) ) ;
#227 = SURFACE_STYLE_FILL_AREA ( #161 ) ;
#228 = DIRECTION ( 'NONE',  ( 0.000000000000000000, 0.000000000000000000, 1.000000000000000000 ) ) ;
#229 = VECTOR ( 'NONE', #271, 1000.000000000000000 ) ;
#230 = VECTOR ( 'NONE', #96, 999.9999999999998863 ) ;
#231 = EDGE_CURVE ( 'NONE', #333, #24, #261, .T. ) ;
#232 = CARTESIAN_POINT ( 'NONE',  ( 0.000000000000000000, 0.000000000000000000, 0.000000000000000000 ) ) ;
#233 = VERTEX_POINT ( 'NONE', #213 ) ;
#234 = DIRECTION ( 'NONE',  ( 0.000000000000000000, 1.000000000000000000, 0.000000000000000000 ) ) ;
#235 = AXIS2_PLACEMENT_3D ( 'NONE', #41, #137, #73 ) ;
#236 = DIRECTION ( 'NONE',  ( 0.000000000000000000, 1.000000000000000000, 0.000000000000000000 ) ) ;
#237 = ADVANCED_FACE ( 'NONE', ( #143, #336 ), #356, .F. ) ;
#238 = ORIENTED_EDGE ( 'NONE', *, *, #263, .F. ) ;
#239 = CARTESIAN_POINT ( 'NONE',  ( 0.000000000000000000, 0.000000000000000000, 1.800000000000000488 ) ) ;
#240 = ORIENTED_EDGE ( 'NONE', *, *, #95, .F. ) ;
#241 = DIRECTION ( 'NONE',  ( -0.000000000000000000, -1.000000000000000000, -0.000000000000000000 ) ) ;
#242 = EDGE_LOOP ( 'NONE', ( #176, #81, #185, #372 ) ) ;
#243 = VECTOR ( 'NONE', #67, 1000.000000000000114 ) ;
#244 = DIRECTION ( 'NONE',  ( 0.000000000000000000, 1.000000000000000000, 0.000000000000000000 ) ) ;
#245 = ORIENTED_EDGE ( 'NONE', *, *, #124, .F. ) ;
#246 = FACE_OUTER_BOUND ( 'NONE', #152, .T. ) ;
#247 = DIRECTION ( 'NONE',  ( 0.000000000000000000, 1.000000000000000000, 0.000000000000000000 ) ) ;
#248 = CIRCLE ( 'NONE', #69, 1.250000000000000000 ) ;
#249 = CARTESIAN_POINT ( 'NONE',  ( 0.000000000000000000, 3.296999999999999709, 0.000000000000000000 ) ) ;
#250 = VERTEX_POINT ( 'NONE', #146 ) ;
#251 = ADVANCED_BREP_SHAPE_REPRESENTATION ( 'Watch Spacer', ( #36, #163 ), #128 ) ;
#252 = ORIENTED_EDGE ( 'NONE', *, *, #124, .T. ) ;
#253 = CIRCLE ( 'NONE', #44, 1.250000000000000000 ) ;
#254 = CARTESIAN_POINT ( 'NONE',  ( 0.000000000000000000, 3.296999999999999709, 1.250000000000000000 ) ) ;
#255 = CYLINDRICAL_SURFACE ( 'NONE', #197, 1.250000000000000000 ) ;
#256 = SURFACE_STYLE_USAGE ( .BOTH. , #376 ) ;
#257 = CLOSED_SHELL ( 'NONE', ( #277, #72, #288, #19, #209, #173, #385, #237, #203, #42, #87, #189, #342, #164 ) ) ;
#258 = AXIS2_PLACEMENT_3D ( 'NONE', #106, #378, #347 ) ;
#259 = EDGE_CURVE ( 'NONE', #40, #305, #248, .T. ) ;
#260 = CARTESIAN_POINT ( 'NONE',  ( 0.000000000000000000, 3.297000000000000153, -2.000000000000000000 ) ) ;
#261 = LINE ( 'NONE', #302, #221 ) ;
#262 = ORIENTED_EDGE ( 'NONE', *, *, #60, .T. ) ;
#263 = EDGE_CURVE ( 'NONE', #361, #281, #187, .T. ) ;
#264 = LINE ( 'NONE', #78, #229 ) ;
#265 = AXIS2_PLACEMENT_3D ( 'NONE', #103, #198, #194 ) ;
#266 = AXIS2_PLACEMENT_3D ( 'NONE', #341, #85, #147 ) ;
#267 = CARTESIAN_POINT ( 'NONE',  ( 2.449293598294705921E-16, 0.1999999999999992339, -2.000000000000000000 ) ) ;
#268 = ORIENTED_EDGE ( 'NONE', *, *, #48, .T. ) ;
#269 = DIRECTION ( 'NONE',  ( 0.000000000000000000, 1.000000000000000000, 0.000000000000000000 ) ) ;
#270 = ORIENTED_EDGE ( 'NONE', *, *, #259, .T. ) ;
#271 = DIRECTION ( 'NONE',  ( -0.000000000000000000, -1.000000000000000000, -0.000000000000000000 ) ) ;
#272 = ORIENTED_EDGE ( 'NONE', *, *, #132, .T. ) ;
#273 = DIRECTION ( 'NONE',  ( 0.000000000000000000, 0.000000000000000000, 1.000000000000000000 ) ) ;
#274 =( NAMED_UNIT ( * ) SI_UNIT ( $, .STERADIAN. ) SOLID_ANGLE_UNIT ( ) );
#275 = VERTEX_POINT ( 'NONE', #311 ) ;
#276 = DIRECTION ( 'NONE',  ( 0.000000000000000000, 0.000000000000000000, 1.000000000000000000 ) ) ;
#277 = ADVANCED_FACE ( 'NONE', ( #395 ), #357, .T. ) ;
#278 = VECTOR ( 'NONE', #326, 1000.000000000000000 ) ;
#279 = PRODUCT_DEFINITION_FORMATION_WITH_SPECIFIED_SOURCE ( 'ANY', '', #68, .NOT_KNOWN. ) ;
#280 = PRODUCT_RELATED_PRODUCT_CATEGORY ( 'part', '', ( #68 ) ) ;
#281 = VERTEX_POINT ( 'NONE', #29 ) ;
#282 = CARTESIAN_POINT ( 'NONE',  ( 0.000000000000000000, 3.496999999999999886, 0.000000000000000000 ) ) ;
#283 = APPLICATION_PROTOCOL_DEFINITION ( 'draft international standard', 'automotive_design', 1998, #321 ) ;
#284 = PRESENTATION_STYLE_ASSIGNMENT (( #256 ) ) ;
#285 = FACE_OUTER_BOUND ( 'NONE', #8, .T. ) ;
#286 = EDGE_LOOP ( 'NONE', ( #66, #71 ) ) ;
#287 = CARTESIAN_POINT ( 'NONE',  ( 0.000000000000000000, 0.1999999999999992339, 0.000000000000000000 ) ) ;
#288 = ADVANCED_FACE ( 'NONE', ( #117 ), #52, .F. ) ;
#289 = VERTEX_POINT ( 'NONE', #338 ) ;
#290 = AXIS2_PLACEMENT_3D ( 'NONE', #282, #14, #318 ) ;
#291 = FACE_OUTER_BOUND ( 'NONE', #211, .T. ) ;
#292 = AXIS2_PLACEMENT_3D ( 'NONE', #355, #241, #49 ) ;
#293 = AXIS2_PLACEMENT_3D ( 'NONE', #91, #244, #306 ) ;
#294 = ORIENTED_EDGE ( 'NONE', *, *, #354, .T. ) ;
#295 = CARTESIAN_POINT ( 'NONE',  ( 1.530808498934191571E-16, 3.296999999999999709, -1.250000000000000000 ) ) ;
#296 = CARTESIAN_POINT ( 'NONE',  ( 0.000000000000000000, 3.496999999999999886, -2.000000000000000000 ) ) ;
#297 = APPLICATION_CONTEXT ( 'automotive_design' ) ;
#298 = EDGE_LOOP ( 'NONE', ( #238, #142, #252, #359 ) ) ;
#299 = FACE_OUTER_BOUND ( 'NONE', #242, .T. ) ;
#300 = AXIS2_PLACEMENT_3D ( 'NONE', #25, #363, #45 ) ;
#301 = CARTESIAN_POINT ( 'NONE',  ( 0.000000000000000000, 3.297000000000000153, 0.000000000000000000 ) ) ;
#302 = CARTESIAN_POINT ( 'NONE',  ( 0.000000000000000000, 3.496999999999999886, -1.800000000000001155 ) ) ;
#303 = ORIENTED_EDGE ( 'NONE', *, *, #48, .F. ) ;
#304 = FACE_OUTER_BOUND ( 'NONE', #298, .T. ) ;
#305 = VERTEX_POINT ( 'NONE', #27 ) ;
#306 = DIRECTION ( 'NONE',  ( 0.000000000000000000, 0.000000000000000000, 1.000000000000000000 ) ) ;
#307 = DIRECTION ( 'NONE',  ( 0.000000000000000000, 0.000000000000000000, 1.000000000000000000 ) ) ;
#308 = ORIENTED_EDGE ( 'NONE', *, *, #263, .T. ) ;
#309 = CIRCLE ( 'NONE', #383, 2.000000000000000000 ) ;
#310 = UNCERTAINTY_MEASURE_WITH_UNIT (LENGTH_MEASURE( 1.000000000000000082E-05 ), #214, 'distance_accuracy_value', 'NONE');
#311 = CARTESIAN_POINT ( 'NONE',  ( 0.000000000000000000, 3.496999999999999886, 1.450000000000001732 ) ) ;
#312 = CARTESIAN_POINT ( 'NONE',  ( 0.000000000000000000, 0.000000000000000000, 0.000000000000000000 ) ) ;
#313 = CARTESIAN_POINT ( 'NONE',  ( 0.000000000000000000, 3.297000000000000153, 0.000000000000000000 ) ) ;
#314 = CIRCLE ( 'NONE', #64, 2.000000000000000000 ) ;
#315 = STYLED_ITEM ( 'NONE', ( #284 ), #36 ) ;
#316 = ORIENTED_EDGE ( 'NONE', *, *, #379, .T. ) ;
#317 = PRODUCT_DEFINITION_CONTEXT ( 'detailed design', #321, 'design' ) ;
#318 = DIRECTION ( 'NONE',  ( 0.000000000000000000, 0.000000000000000000, 1.000000000000000000 ) ) ;
#319 = EDGE_CURVE ( 'NONE', #17, #361, #88, .T. ) ;
#320 = CARTESIAN_POINT ( 'NONE',  ( 0.000000000000000000, 0.1999999999999992339, 2.000000000000000000 ) ) ;
#321 = APPLICATION_CONTEXT ( 'automotive_design' ) ;
#322 = AXIS2_PLACEMENT_3D ( 'NONE', #172, #141, #140 ) ;
#323 =( NAMED_UNIT ( * ) PLANE_ANGLE_UNIT ( ) SI_UNIT ( $, .RADIAN. ) );
#324 = EDGE_CURVE ( 'NONE', #386, #281, #118, .T. ) ;
#325 = DIRECTION ( 'NONE',  ( -0.000000000000000000, -1.000000000000000000, -0.000000000000000000 ) ) ;
#326 = DIRECTION ( 'NONE',  ( -0.000000000000000000, -1.000000000000000000, -0.000000000000000000 ) ) ;
#327 = AXIS2_PLACEMENT_3D ( 'NONE', #113, #234, #107 ) ;
#328 = DIRECTION ( 'NONE',  ( -0.000000000000000000, -1.000000000000000000, -0.000000000000000000 ) ) ;
#329 = DIRECTION ( 'NONE',  ( -0.000000000000000000, -1.000000000000000000, -0.000000000000000000 ) ) ;
#330 = EDGE_LOOP ( 'NONE', ( #218, #340 ) ) ;
#331 = DIRECTION ( 'NONE',  ( -0.000000000000000000, -1.000000000000000000, -0.000000000000000000 ) ) ;
#332 = VECTOR ( 'NONE', #389, 1000.000000000000000 ) ;
#333 = VERTEX_POINT ( 'NONE', #63 ) ;
#334 = VECTOR ( 'NONE', #217, 999.9999999999998863 ) ;
#335 = EDGE_CURVE ( 'NONE', #133, #275, #364, .T. ) ;
#336 = FACE_OUTER_BOUND ( 'NONE', #330, .T. ) ;
#337 = ORIENTED_EDGE ( 'NONE', *, *, #362, .F. ) ;
#338 = CARTESIAN_POINT ( 'NONE',  ( 1.775737858763660684E-16, 0.000000000000000000, 1.449999999999999067 ) ) ;
#339 = CARTESIAN_POINT ( 'NONE',  ( 0.000000000000000000, 3.496999999999999886, 0.000000000000000000 ) ) ;
#340 = ORIENTED_EDGE ( 'NONE', *, *, #101, .T. ) ;
#341 = CARTESIAN_POINT ( 'NONE',  ( 0.000000000000000000, 0.1999999999999992339, 0.000000000000000000 ) ) ;
#342 = ADVANCED_FACE ( 'NONE', ( #246 ), #192, .T. ) ;
#343 = CIRCLE ( 'NONE', #265, 1.800000000000000488 ) ;
#344 = PLANE ( 'NONE',  #53 ) ;
#345 = DIRECTION ( 'NONE',  ( 0.000000000000000000, 1.000000000000000000, 0.000000000000000000 ) ) ;
#346 = ORIENTED_EDGE ( 'NONE', *, *, #350, .F. ) ;
#347 = DIRECTION ( 'NONE',  ( 0.000000000000000000, 0.000000000000000000, 1.000000000000000000 ) ) ;
#348 = DIRECTION ( 'NONE',  ( 0.000000000000000000, 0.000000000000000000, 1.000000000000000000 ) ) ;
#349 =( LENGTH_UNIT ( ) NAMED_UNIT ( * ) SI_UNIT ( .MILLI., .METRE. ) );
#350 = EDGE_CURVE ( 'NONE', #114, #289, #398, .T. ) ;
#351 = SHAPE_DEFINITION_REPRESENTATION ( #130, #251 ) ;
#352 = AXIS2_PLACEMENT_3D ( 'NONE', #249, #345, #390 ) ;
#353 = DIRECTION ( 'NONE',  ( 0.000000000000000000, -1.000000000000000000, 0.000000000000000000 ) ) ;
#354 = EDGE_CURVE ( 'NONE', #233, #250, #193, .T. ) ;
#355 = CARTESIAN_POINT ( 'NONE',  ( 0.000000000000000000, 3.496999999999999886, 0.000000000000000000 ) ) ;
#356 = PLANE ( 'NONE',  #21 ) ;
#357 = CONICAL_SURFACE ( 'NONE', #31, 1.800000000000001155, 0.7853981633974450594 ) ;
#358 = CYLINDRICAL_SURFACE ( 'NONE', #374, 2.000000000000000000 ) ;
#359 = ORIENTED_EDGE ( 'NONE', *, *, #324, .T. ) ;
#360 = CARTESIAN_POINT ( 'NONE',  ( 0.000000000000000000, 3.496999999999999886, 0.000000000000000000 ) ) ;
#361 = VERTEX_POINT ( 'NONE', #119 ) ;
#362 = EDGE_CURVE ( 'NONE', #305, #289, #188, .T. ) ;
#363 = DIRECTION ( 'NONE',  ( 0.000000000000000000, 1.000000000000000000, 0.000000000000000000 ) ) ;
#364 = CIRCLE ( 'NONE', #65, 1.450000000000001732 ) ;
#365 = ORIENTED_EDGE ( 'NONE', *, *, #178, .T. ) ;
#366 = DIRECTION ( 'NONE',  ( 0.000000000000000000, -1.000000000000000000, 0.000000000000000000 ) ) ;
#367 = ORIENTED_EDGE ( 'NONE', *, *, #200, .F. ) ;
#368 = CARTESIAN_POINT ( 'NONE',  ( 2.204364238465237548E-16, 3.496999999999999886, 1.800000000000001155 ) ) ;
#369 = CARTESIAN_POINT ( 'NONE',  ( 1.775737858763660684E-16, 0.000000000000000000, 1.449999999999999067 ) ) ;
#370 = AXIS2_PLACEMENT_3D ( 'NONE', #18, #236, #381 ) ;
#371 = ORIENTED_EDGE ( 'NONE', *, *, #104, .F. ) ;
#372 = ORIENTED_EDGE ( 'NONE', *, *, #399, .F. ) ;
#373 = CIRCLE ( 'NONE', #12, 2.000000000000000000 ) ;
#374 = AXIS2_PLACEMENT_3D ( 'NONE', #360, #329, #210 ) ;
#375 = CARTESIAN_POINT ( 'NONE',  ( 0.000000000000000000, 0.1999999999999992339, 0.000000000000000000 ) ) ;
#376 = SURFACE_SIDE_STYLE ('',( #227 ) ) ;
#377 = DIRECTION ( 'NONE',  ( -0.000000000000000000, 1.000000000000000000, -0.000000000000000000 ) ) ;
#378 = DIRECTION ( 'NONE',  ( 0.000000000000000000, 1.000000000000000000, 0.000000000000000000 ) ) ;
#379 = EDGE_CURVE ( 'NONE', #40, #114, #89, .T. ) ;
#380 = DIRECTION ( 'NONE',  ( 0.000000000000000000, -0.000000000000000000, 1.000000000000000000 ) ) ;
#381 = DIRECTION ( 'NONE',  ( 0.000000000000000000, 0.000000000000000000, 1.000000000000000000 ) ) ;
#382 = AXIS2_PLACEMENT_3D ( 'NONE', #108, #111, #207 ) ;
#383 = AXIS2_PLACEMENT_3D ( 'NONE', #313, #155, #307 ) ;
#384 = DIRECTION ( 'NONE',  ( 8.659560562354941486E-17, 0.7071067811865466846, -0.7071067811865483499 ) ) ;
#385 = ADVANCED_FACE ( 'NONE', ( #92, #30 ), #344, .T. ) ;
#386 = VERTEX_POINT ( 'NONE', #396 ) ;
#387 = LINE ( 'NONE', #267, #149 ) ;
#388 = ORIENTED_EDGE ( 'NONE', *, *, #159, .F. ) ;
#389 = DIRECTION ( 'NONE',  ( -0.000000000000000000, -1.000000000000000000, -0.000000000000000000 ) ) ;
#390 = DIRECTION ( 'NONE',  ( 0.000000000000000000, 0.000000000000000000, 1.000000000000000000 ) ) ;
#391 = VECTOR ( 'NONE', #181, 1000.000000000000114 ) ;
#392 = ORIENTED_EDGE ( 'NONE', *, *, #335, .T. ) ;
#393 = DIRECTION ( 'NONE',  ( 0.000000000000000000, 0.000000000000000000, -1.000000000000000000 ) ) ;
#394 = EDGE_LOOP ( 'NONE', ( #79, #308, #262, #245 ) ) ;
#395 = FACE_OUTER_BOUND ( 'NONE', #54, .T. ) ;
#396 = CARTESIAN_POINT ( 'NONE',  ( 0.000000000000000000, 0.1999999999999992339, -2.000000000000000000 ) ) ;
#397 = VECTOR ( 'NONE', #219, 1000.000000000000114 ) ;
#398 = CIRCLE ( 'NONE', #177, 1.449999999999999067 ) ;
#399 = EDGE_CURVE ( 'NONE', #361, #24, #309, .T. ) ;
ENDSEC;
END-ISO-10303-21;
